<?xml version="1.0" standalone="no"?>
<!DOCTYPE svg PUBLIC "-//W3C//DTD SVG 20010904//EN"
 "http://www.w3.org/TR/2001/REC-SVG-20010904/DTD/svg10.dtd">
<svg version="1.0" xmlns="http://www.w3.org/2000/svg"
 width="1080.000000pt" height="1080.000000pt" viewBox="0 0 1080.000000 1080.000000"
 preserveAspectRatio="xMidYMid meet">
<metadata>
Created by potrace 1.14, written by Peter Selinger 2001-2017
</metadata>
<g transform="translate(0.000000,1080.000000) scale(0.100000,-0.100000)"
fill="#000000" stroke="none">
<path d="M0 10765 c0 -39 12 -45 71 -38 41 5 43 4 24 -10 -19 -15 -19 -15 8
-10 15 3 24 9 21 14 -3 5 13 9 35 9 32 0 39 -3 35 -15 -4 -8 -1 -15 5 -15 6 0
10 5 8 12 -4 20 34 21 50 1 14 -17 14 -17 9 2 -6 19 -5 19 8 3 14 -20 36 -24
36 -8 0 6 18 10 40 10 29 0 40 -4 40 -15 0 -8 7 -15 16 -15 8 0 12 -5 8 -11
-3 -6 -20 -8 -38 -5 -17 3 -109 8 -203 12 l-173 7 0 -141 0 -140 68 -7 c37 -4
78 -8 92 -10 14 -2 51 -4 83 -4 32 -1 56 -5 53 -9 -2 -4 -44 -5 -93 -1 -48 4
-114 9 -145 11 l-58 5 0 -38 c0 -27 5 -39 18 -42 16 -4 16 -5 0 -6 -13 -1 -18
-10 -18 -31 0 -16 3 -30 8 -30 66 -3 178 -13 182 -17 3 -3 -39 -3 -92 0 l-98
5 0 -29 c0 -35 4 -36 160 -44 63 -3 140 -8 170 -10 30 -3 100 -7 155 -10 196
-10 235 -16 220 -31 -15 -16 -29 -19 -21 -5 8 13 -162 24 -235 16 -44 -5 -60
-4 -55 4 4 6 3 11 -3 11 -5 0 -13 -5 -16 -10 -4 -6 -10 -8 -15 -5 -5 3 -46 7
-92 10 -91 5 -185 13 -235 20 l-33 4 0 -89 0 -90 38 -1 37 -1 -37 -10 -38 -10
0 -4979 0 -4979 5400 0 5400 0 0 5314 0 5315 -27 4 -28 4 28 2 27 1 0 80 0 81
-1157 -3 c-637 -2 -1104 -5 -1038 -8 66 -3 116 -7 110 -9 -14 -4 -244 0 -280
5 -44 6 -455 14 -422 8 65 -12 8 -19 -137 -16 -86 2 -155 6 -152 10 3 5 -4 9
-15 9 -11 1 -17 -2 -14 -8 4 -5 -3 -9 -14 -9 -12 0 -21 5 -21 11 0 11 -345 8
-357 -4 -9 -10 -183 -9 -183 1 0 4 -32 8 -70 8 -69 2 -92 -8 -47 -20 12 -3 45
-6 72 -7 28 -1 64 -5 80 -10 17 -4 -51 -5 -155 -2 -102 3 -188 7 -191 9 -17
10 -579 6 -579 -4 0 -11 -2 -10 145 -16 322 -13 613 -27 640 -31 17 -2 162 -5
323 -5 243 -1 292 -3 283 -14 -9 -10 -8 -15 4 -20 10 -4 15 1 15 14 0 13 7 20
20 20 11 0 20 5 20 10 0 6 -5 10 -11 10 -5 0 -8 4 -5 9 4 5 0 12 -6 14 -10 4
-10 6 0 6 17 1 40 -21 35 -34 -2 -6 44 -11 120 -12 67 -1 140 -4 162 -7 22 -2
119 -7 215 -11 96 -4 177 -9 179 -11 2 -2 -34 -4 -80 -5 -59 -1 -77 -3 -59 -9
18 -6 4 -8 -47 -8 -40 1 -73 5 -73 10 0 5 -6 8 -12 7 -7 -2 -65 1 -128 5 -196
13 -320 12 -320 -1 0 -8 22 -11 68 -10 110 2 226 -5 237 -14 6 -4 38 -10 70
-12 33 -3 -39 -2 -160 1 -121 2 -298 4 -394 3 -112 -1 -177 3 -181 9 -7 12
-33 14 -375 30 -126 6 -248 13 -269 15 -92 10 -466 27 -478 22 -7 -3 7 -6 32
-7 25 -1 59 -6 75 -11 23 -6 18 -7 -20 -3 -199 18 -422 25 -896 30 -612 6
-569 5 -569 13 0 3 114 5 252 4 306 -3 306 13 1 22 -114 4 -224 8 -243 10 -19
2 -327 7 -684 11 -536 6 -648 5 -641 -6 5 -9 4 -11 -4 -6 -22 14 -230 12 -236
-1 -2 -7 -10 -13 -17 -12 -10 0 -10 2 0 6 22 9 13 18 -18 19 -28 2 -29 1 -13
-13 13 -11 11 -11 -9 1 -31 18 -63 22 -38 5 12 -8 9 -9 -10 -4 -14 4 -353 8
-755 10 -751 2 -785 -1 -281 -31 116 -7 131 -22 18 -18 -101 3 -322 17 -462
31 -55 5 -68 8 -50 14 14 4 -341 7 -787 7 l-813 1 0 -34z m877 19 c-3 -3 -12
-4 -19 -1 -8 3 -5 6 6 6 11 1 17 -2 13 -5z m525 -4 c13 -6 93 -17 178 -25
l155 -14 -175 6 c-96 3 -192 6 -213 8 -38 3 -62 14 -36 16 8 1 -4 5 -26 9 -36
6 -33 7 27 9 37 0 77 -4 90 -9z m151 3 c-7 -2 -21 -2 -30 0 -10 3 -4 5 12 5
17 0 24 -2 18 -5z m1172 -12 c222 -19 299 -22 475 -22 96 0 183 -2 193 -5 28
-8 9 -25 -21 -18 -44 9 -102 5 -102 -8 0 -4 3 -8 8 -8 4 0 75 -3 157 -7 140
-6 149 -5 136 11 -10 11 -17 14 -24 7 -7 -7 -15 -7 -22 -1 -6 5 -33 10 -60 13
-35 2 -26 4 33 5 48 1 82 -2 82 -8 0 -5 13 -7 28 -4 15 3 156 -1 313 -10 156
-8 349 -18 429 -22 80 -3 188 -10 240 -14 52 -4 185 -8 295 -9 110 -2 214 -4
230 -6 17 -2 82 -4 145 -6 95 -2 106 -3 60 -9 -66 -8 -62 -9 60 -17 52 -3 97
-7 99 -9 2 -2 -49 -4 -115 -5 -65 0 -113 -3 -106 -6 19 -7 4 -23 -23 -23 -13
0 -27 -4 -30 -10 -6 -9 84 -16 143 -11 12 1 22 -4 22 -10 0 -13 -125 -9 -346
11 -168 15 -495 29 -824 35 -399 7 -580 15 -580 25 0 5 -21 11 -47 13 -41 3
-38 4 22 6 39 2 84 5 100 6 38 3 645 -13 734 -20 36 -2 89 -7 116 -10 28 -2
111 -7 185 -10 74 -3 170 -8 213 -11 51 -3 77 -2 77 5 0 6 -23 11 -52 12 -29
0 -62 2 -72 4 -11 2 -74 7 -140 11 -67 3 -128 8 -136 9 -8 2 -103 6 -210 10
-107 4 -224 8 -260 10 -60 3 -210 8 -650 20 -96 3 -224 9 -285 14 -158 14
-418 30 -580 36 -154 6 -164 7 -184 19 -9 6 -12 5 -8 -1 7 -11 -33 -33 -58
-33 -8 0 -15 -4 -15 -10 0 -5 -7 -7 -15 -4 -8 4 -15 1 -15 -5 0 -6 9 -11 20
-11 11 0 20 5 20 11 0 7 12 9 36 4 26 -4 39 -2 45 7 7 10 9 10 9 1 0 -7 9 -13
20 -13 11 0 20 5 20 11 0 5 3 8 8 6 4 -3 181 -15 395 -28 213 -13 387 -26 387
-29 0 -3 -39 -4 -87 -2 -106 4 -107 -4 -3 -13 41 -4 102 -11 135 -16 102 -14
-203 -1 -360 15 -134 15 -219 19 -550 31 -335 11 -480 18 -485 22 -2 2 80 3
184 3 103 -1 190 0 192 3 3 2 -37 8 -88 13 l-93 9 75 5 c45 3 78 1 82 -5 5 -6
8 -5 8 2 0 9 17 13 55 12 129 -3 46 25 -115 39 -88 8 -68 9 125 6 127 -2 284
-8 350 -13z m1510 4 c44 -2 171 -7 282 -11 121 -4 200 -11 197 -16 -4 -6 -15
-8 -25 -5 -11 3 -19 2 -19 -3 0 -4 33 -11 73 -15 39 -4 86 -9 102 -12 17 -4
146 -6 289 -5 142 1 256 -1 254 -3 -12 -12 -471 -17 -573 -6 -60 6 -132 14
-160 17 -27 3 -77 9 -110 14 -53 8 -133 14 -347 24 -32 2 -58 -1 -58 -5 0 -5
3 -9 8 -9 50 -2 158 -14 162 -18 3 -2 -35 -2 -85 1 -49 4 -160 11 -245 17 -85
5 -189 12 -230 15 -41 4 -147 7 -235 8 l-160 1 130 6 c112 5 121 6 65 11 -77
6 569 1 685 -6z m-3046 -11 c8 -7 -163 -2 -219 6 -34 5 -4 6 80 2 74 -2 137
-6 139 -8z m2149 9 c-10 -2 -28 -2 -40 0 -13 2 -5 4 17 4 22 1 32 -1 23 -4z
m4215 -10 c-13 -2 -35 -2 -50 0 -16 2 -5 4 22 4 28 0 40 -2 28 -4z m2040 0
c-7 -2 -21 -2 -30 0 -10 3 -4 5 12 5 17 0 24 -2 18 -5z m534 1 c-3 -3 -12 -4
-19 -1 -8 3 -5 6 6 6 11 1 17 -2 13 -5z m-5347 -11 c0 -5 -11 -9 -25 -9 -14
-1 -25 2 -25 7 0 5 11 9 25 9 14 0 25 -3 25 -7z m2815 -2 c-3 -5 7 -12 22 -14
26 -4 26 -4 -4 -6 -31 -1 -41 7 -26 22 9 10 15 8 8 -2z m313 -7 c98 -11 45
-16 -80 -8 -80 5 -113 10 -93 14 30 7 69 6 173 -6z m467 6 c7 -11 -25 -11 -70
0 -27 7 -25 8 17 9 26 0 50 -3 53 -9z m-7189 -25 c87 -7 134 -13 104 -13 -75
-2 -359 24 -368 33 -4 4 18 4 49 0 30 -4 127 -13 215 -20z m6311 18 c-20 -2
-52 -2 -70 0 -17 2 0 4 38 4 39 0 53 -2 32 -4z m1172 -2 c57 -1 102 -3 100 -5
-9 -8 -279 -14 -279 -6 0 5 -10 11 -22 13 -13 3 4 3 37 1 33 -1 107 -3 164 -3z
m-6779 -8 c0 -5 -24 -7 -52 -5 -95 5 -104 9 -25 11 42 0 77 -2 77 -6z m6298
-7 c3 -3 -37 -5 -89 -5 -59 1 -81 4 -59 8 41 7 139 5 148 -3z m799 8 c-7 -8
-102 -10 -132 -3 -19 4 1 7 53 7 46 0 81 -2 79 -4z m43 -4 c0 -5 -4 -10 -10
-10 -5 0 -10 5 -10 10 0 6 5 10 10 10 6 0 10 -4 10 -10z m-6924 -7 c-7 -7
-199 -4 -205 3 -3 3 43 4 102 3 60 -1 106 -4 103 -6z m6127 0 c-7 -2 -19 -2
-25 0 -7 3 -2 5 12 5 14 0 19 -2 13 -5z m867 -5 c0 -11 -22 -10 -39 1 -10 7
-7 9 12 8 15 -1 27 -5 27 -9z m30 8 c0 -3 -4 -8 -10 -11 -5 -3 -10 -1 -10 4 0
6 5 11 10 11 6 0 10 -2 10 -4z m40 -6 c-19 -13 -30 -13 -30 0 0 6 10 10 23 10
18 0 19 -2 7 -10z m57 4 c-3 -3 -12 -4 -19 -1 -8 3 -5 6 6 6 11 1 17 -2 13 -5z
m56 -1 c-7 -2 -21 -2 -30 0 -10 3 -4 5 12 5 17 0 24 -2 18 -5z m-8383 -20 c14
-3 34 -5 45 -4 27 2 49 -14 40 -28 -5 -9 -10 -9 -21 0 -7 6 -21 9 -29 5 -8 -3
-15 -1 -15 4 0 5 -12 7 -27 6 -16 -2 -28 -5 -28 -6 0 -1 -24 -3 -52 -5 -29 -1
-53 2 -53 6 0 5 -12 6 -27 4 -66 -12 -162 -12 -156 -1 4 6 0 5 -9 -2 -10 -8
-40 -12 -78 -11 -57 2 -61 3 -44 17 18 14 18 14 -1 8 -11 -3 -27 -1 -35 4 -10
7 2 9 43 9 41 -1 57 -5 57 -15 0 -8 4 -14 10 -14 5 0 7 6 4 14 -4 12 3 14 38
10 24 -3 49 -7 56 -9 7 -3 10 -1 7 4 -3 5 3 12 12 14 22 6 229 -2 263 -10z
m615 2 c83 -3 157 -8 166 -11 19 -5 61 -12 129 -20 25 -3 78 -10 118 -15 41
-6 76 -8 79 -5 3 3 15 1 26 -5 14 -8 18 -8 13 0 -5 7 7 9 36 6 24 -2 97 -7
163 -10 120 -6 129 -7 175 -18 48 -12 240 -15 233 -3 -4 6 0 5 9 -2 9 -7 27
-10 40 -7 14 4 94 2 179 -4 173 -12 325 -18 669 -27 129 -4 246 -7 260 -9 14
-1 85 -3 159 -3 74 -1 132 -5 128 -8 -3 -4 -122 -6 -264 -5 -141 1 -255 0
-253 -2 9 -9 293 -16 765 -20 264 -3 413 -1 330 3 -127 5 -105 7 140 7 303 0
378 -4 370 -17 -3 -4 75 -11 173 -15 97 -4 188 -8 202 -10 99 -14 1042 -55
1255 -54 127 0 98 14 -50 23 -97 6 -345 27 -663 56 -166 15 -660 23 -642 11
12 -8 6 -11 -25 -10 -31 0 -36 2 -20 9 19 8 19 9 -2 9 -13 1 -23 6 -23 11 0 7
21 9 55 6 30 -2 58 0 61 5 6 10 -2 11 -106 14 -101 3 -102 4 -95 15 7 11 226
6 470 -10 77 -5 169 -9 205 -8 l65 1 -55 7 c-30 5 -91 9 -135 10 -44 1 -89 5
-100 10 -27 11 888 16 1208 7 31 -1 57 2 57 6 0 5 4 6 8 3 4 -2 14 -1 21 3 15
9 -507 25 -631 20 -42 -2 -74 -1 -71 4 4 6 -20 11 -40 8 -5 -1 -6 3 -2 9 6 10
459 7 506 -4 13 -4 114 -8 224 -10 110 -2 220 -9 245 -14 41 -9 393 -28 448
-24 18 1 20 -1 10 -12 -13 -13 -35 -13 -163 -2 -33 3 -141 8 -240 11 -99 3
-196 8 -215 10 -27 4 -30 2 -15 -5 25 -11 18 -12 -85 -14 -47 -1 -105 -3 -130
-5 l-45 -3 40 -13 c22 -7 70 -12 108 -11 37 1 67 -1 67 -4 0 -3 12 -7 28 -8
21 -1 23 0 12 8 -11 7 -6 10 20 9 29 0 31 -2 15 -9 -14 -6 -3 -8 37 -7 31 1
54 -1 51 -5 -2 -5 8 -8 24 -7 25 0 26 1 8 9 -13 6 16 9 86 8 58 -1 111 2 119
7 9 5 11 4 6 -3 -5 -8 0 -12 13 -12 11 0 22 4 25 9 3 5 66 6 140 4 91 -3 136
-1 140 6 4 6 14 11 23 11 9 0 13 -3 10 -7 -4 -3 10 -16 31 -29 l37 -23 -45 5
c-25 2 -55 9 -67 15 -15 8 -27 9 -35 2 -7 -5 -34 -9 -60 -8 -26 1 -45 -1 -42
-4 3 -3 9 -6 12 -6 4 0 13 -4 21 -9 7 -5 52 -10 100 -12 47 -2 86 -4 86 -4 0
-1 36 -3 80 -5 44 -3 123 -9 175 -14 52 -6 138 -13 190 -17 52 -3 97 -8 99
-10 13 -12 -305 3 -459 21 -19 3 -42 5 -50 6 -8 0 -22 3 -30 6 -8 3 -40 5 -70
4 -30 -1 -158 5 -285 14 -126 8 -267 15 -312 15 -45 0 -84 4 -88 9 -7 12 -45
10 -45 -2 0 -4 -5 -5 -11 -1 -6 3 -90 8 -187 9 -98 2 -228 6 -289 10 -72 4
-113 3 -113 -3 0 -5 63 -13 148 -17 81 -3 158 -8 172 -10 14 -2 79 -6 145 -10
66 -3 140 -8 165 -10 25 -2 90 -7 145 -10 208 -11 267 -15 508 -31 136 -10
247 -21 247 -26 0 -5 8 -5 18 0 9 5 31 5 47 1 17 -3 23 -7 15 -8 -10 -2 -9 -5
5 -11 12 -4 144 -13 295 -20 151 -6 280 -13 285 -16 11 -4 -384 5 -432 11 -15
2 -129 6 -253 9 -124 3 -272 8 -330 11 -58 3 -220 7 -360 10 -242 5 -750 17
-1275 30 -131 4 -242 8 -245 10 -3 1 -54 6 -115 10 -60 4 -112 9 -115 10 -3 2
-84 7 -180 10 -96 4 -191 8 -210 10 -93 9 -355 6 -358 -4 -2 -6 -8 -11 -13
-11 -6 0 -8 4 -5 9 5 8 -11 8 -34 1 -9 -3 -142 1 -210 5 -118 8 -581 25 -804
29 -148 4 -222 9 -226 16 -5 8 -9 7 -13 -4 -5 -12 0 -16 21 -17 15 0 36 -2 47
-4 67 -11 155 -16 350 -20 121 -3 297 -9 390 -15 159 -9 294 -11 675 -12 85 0
180 -2 210 -4 30 -1 102 -3 160 -4 72 0 100 -3 90 -10 -10 -6 -11 -10 -3 -10
7 0 137 -6 290 -14 153 -8 400 -18 548 -21 149 -3 293 -8 320 -10 28 -2 165
-7 305 -10 140 -4 269 -8 285 -10 17 -2 118 -6 225 -10 107 -3 213 -8 235 -10
22 -2 137 -6 255 -9 118 -4 235 -9 260 -11 25 -2 116 -7 203 -11 87 -3 166 -7
175 -9 10 -2 50 -4 90 -4 39 -1 72 -4 72 -8 0 -5 -55 -6 -122 -3 -124 6 -230
5 -455 -4 -79 -3 -125 -1 -129 6 -4 6 -10 5 -15 -3 -7 -11 -9 -10 -9 4 0 10
-5 15 -10 12 -6 -4 -8 -12 -4 -18 3 -7 0 -5 -8 4 -25 30 -331 50 -1093 69
-203 6 -442 14 -530 19 -88 6 -254 11 -370 12 -115 1 -250 6 -300 11 -49 5
-101 7 -115 6 -35 -5 143 -26 275 -34 61 -3 112 -8 114 -10 2 -2 11 2 19 9 13
9 14 9 8 0 -5 -10 16 -13 96 -13 57 0 202 -7 323 -14 121 -8 326 -17 455 -20
387 -10 611 -16 690 -21 41 -3 131 -7 200 -10 69 -3 128 -9 133 -14 5 -5 -9
-7 -30 -5 -21 2 -173 6 -338 9 -165 3 -336 8 -380 11 -138 8 -426 10 -413 3
17 -9 289 -26 638 -40 151 -6 277 -13 280 -16 9 -10 -502 11 -805 32 -38 3
-209 7 -380 10 -170 3 -350 7 -400 9 -87 3 -89 3 -55 -11 46 -20 146 -34 243
-35 42 0 77 -4 77 -9 0 -10 53 -17 180 -25 58 -3 112 -10 120 -15 15 -8 -132
-6 -337 7 -57 3 -103 3 -103 -1 0 -15 75 -35 135 -35 39 0 65 -4 65 -11 0 -7
-19 -8 -57 -4 -54 6 -57 5 -39 -9 11 -9 27 -16 37 -16 9 0 19 -7 23 -15 3 -8
13 -15 23 -15 17 1 16 2 -1 15 -18 14 -14 15 49 15 74 0 80 9 12 21 -24 5 15
6 93 3 74 -2 201 -4 283 -5 81 0 147 -5 147 -10 0 -5 -27 -7 -60 -5 -52 4 -58
3 -45 -10 9 -10 23 -12 41 -8 18 5 25 3 20 -4 -6 -10 -165 -9 -418 2 -57 3
-98 1 -98 -5 0 -5 4 -9 10 -9 5 0 7 -7 4 -15 -4 -10 0 -15 15 -15 23 0 29 15
9 23 -7 3 14 5 47 6 48 0 55 -2 36 -10 -13 -5 -32 -7 -42 -4 -11 4 -19 2 -19
-4 0 -6 15 -12 33 -13 27 -1 25 -2 -13 -8 -37 -5 -41 -8 -25 -15 11 -5 22 -12
25 -16 8 -11 129 -24 203 -20 37 1 67 -2 67 -7 0 -5 12 -12 26 -15 19 -3 24
-1 19 10 -4 11 -1 13 11 9 8 -3 97 -7 197 -7 106 -1 169 -5 152 -9 l-30 -8 30
-2 c17 -1 41 -3 55 -5 14 -2 74 -6 135 -11 68 -4 102 -10 90 -15 -19 -7 -19
-8 2 -8 12 -1 23 3 25 7 2 5 44 5 93 1 50 -5 171 -8 270 -8 99 0 196 -3 215
-6 19 -2 69 -5 110 -6 43 -1 78 -6 83 -13 5 -8 10 -7 17 4 5 8 10 10 10 4 0
-7 18 -9 50 -6 53 4 100 -3 100 -16 0 -4 -9 -8 -20 -9 -11 -1 -18 2 -15 8 4 5
-1 9 -9 9 -9 0 -16 -3 -16 -7 0 -7 -70 -8 -355 -3 -66 1 -92 5 -75 10 l25 8
-27 1 c-16 1 -28 -4 -28 -10 0 -5 -3 -8 -7 -6 -5 3 -60 8 -123 11 -63 4 -182
11 -265 16 -82 5 -208 12 -280 15 -159 8 -213 13 -225 20 -5 3 -11 2 -13 -2
-3 -5 -97 -6 -209 -3 -111 3 -204 4 -206 4 -1 -1 24 -25 57 -53 38 -33 71 -53
91 -56 35 -4 54 -15 27 -15 -19 0 -23 -15 -5 -26 6 -4 30 -7 52 -7 46 0 76
-12 76 -30 0 -9 -2 -9 -8 -1 -5 9 -11 8 -20 -2 -11 -12 -7 -14 20 -14 18 0 50
-3 71 -7 63 -10 21 -22 -57 -16 l-70 5 42 -49 c48 -58 23 -53 392 -74 113 -6
214 -14 225 -19 22 -9 -207 -6 -388 5 l-119 7 7 -24 c6 -22 6 -22 -9 -4 -17
21 -22 11 -7 -13 6 -9 28 -15 64 -15 31 -1 53 3 50 8 -4 5 -1 6 5 2 23 -14 12
-26 -23 -26 -19 0 -35 -4 -35 -10 0 -5 -7 -7 -16 -3 -14 5 -14 3 -6 -13 34
-60 55 -73 122 -79 91 -6 170 -14 205 -20 17 -2 68 -7 115 -11 272 -19 297
-22 130 -17 -91 3 -176 7 -190 8 -14 2 -64 4 -112 6 -48 1 -85 5 -82 10 7 11
1 11 -31 -1 -14 -5 -24 -6 -21 -1 6 9 -26 21 -57 21 -16 0 -12 -12 24 -80 l43
-80 59 0 c32 0 56 -4 53 -9 -4 -5 -25 -7 -48 -4 -24 2 -39 1 -35 -3 4 -4 69
-13 145 -19 75 -7 115 -12 87 -13 -27 0 -92 3 -143 6 -50 4 -92 4 -92 1 0 -3
13 -36 30 -72 16 -36 50 -125 74 -198 24 -72 50 -135 57 -140 11 -7 11 -9 1
-9 -8 0 -11 -7 -8 -17 8 -28 44 -251 51 -320 7 -59 9 -63 33 -64 l27 -2 -27
-4 -28 -4 0 -122 c0 -279 -60 -567 -172 -829 -28 -65 -51 -118 -53 -118 -1 0
-33 30 -71 68 -100 98 -233 171 -394 216 -174 48 -446 72 -660 56 -359 -26
-498 -47 -668 -102 -52 -16 -96 -28 -98 -26 -13 13 21 72 65 113 168 157 317
383 406 615 66 171 131 499 77 388 -9 -20 -11 -14 -11 35 -2 129 -52 163 -126
86 l-40 -40 29 3 c37 4 56 -27 56 -91 l0 -44 25 23 25 23 0 -34 c0 -29 -13
-48 -80 -120 -117 -128 -274 -243 -579 -429 -85 -52 -149 -96 -142 -98 17 -6
197 26 256 45 63 20 140 58 183 90 40 30 42 15 2 -30 -58 -66 -228 -134 -430
-172 -52 -10 -98 -21 -103 -25 -4 -3 43 -1 105 6 62 6 145 15 183 19 l70 8
-19 -21 c-33 -38 -188 -72 -323 -72 l-55 0 -99 -92 c-54 -50 -97 -93 -95 -95
2 -2 52 19 112 48 101 48 120 53 268 75 88 13 161 22 163 20 6 -6 -103 -107
-148 -137 -61 -40 -132 -66 -210 -74 l-65 -7 -28 -63 c-35 -81 -116 -178 -202
-244 -82 -62 -275 -158 -394 -197 -47 -15 -89 -31 -93 -35 -16 -13 138 -33
253 -32 94 0 128 5 187 25 l72 24 -5 -25 c-10 -47 -62 -145 -99 -189 -39 -45
-120 -105 -142 -105 -7 0 -16 -12 -19 -26 -56 -247 -120 -396 -237 -554 -32
-43 -56 -81 -54 -83 9 -9 128 89 168 139 86 107 139 267 139 422 0 87 11 90
36 12 16 -51 16 -55 -10 -149 -41 -156 -107 -291 -213 -435 -29 -40 -49 -73
-44 -73 16 0 104 74 154 130 58 65 102 147 128 244 l20 71 -5 -100 c-9 -182
-19 -214 -103 -328 -131 -177 -182 -217 -258 -203 -66 13 -147 132 -216 318
-16 43 -29 81 -29 83 0 2 33 25 73 51 95 62 204 172 255 259 51 86 91 205 99
292 l6 65 -41 -28 c-36 -26 -41 -35 -53 -93 -29 -153 -129 -276 -329 -403
l-99 -63 -7 -55 c-19 -151 71 -394 201 -538 54 -60 142 -108 180 -98 32 8 164
139 203 200 l29 48 12 -80 c52 -357 205 -512 506 -512 64 0 75 3 123 35 132
87 245 214 324 366 l38 74 -6 -172 c-4 -95 -4 -173 -1 -173 10 0 106 302 136
430 31 127 60 306 62 376 l1 39 9 -45 c19 -92 -23 -395 -87 -625 -14 -49 -27
-99 -30 -110 l-5 -20 16 20 c51 62 135 266 165 400 l17 80 8 -59 c15 -115 -17
-253 -94 -411 -22 -44 -37 -82 -35 -85 9 -8 102 104 141 169 l37 64 20 -44
c10 -24 21 -76 24 -114 l4 -70 -88 -13 c-49 -6 -123 -20 -164 -30 l-75 -19
100 -6 c136 -10 262 -34 307 -59 21 -12 36 -23 35 -25 -2 -2 -30 2 -63 9 -72
14 -374 15 -399 1 -14 -8 -9 -12 31 -17 183 -26 423 -116 484 -181 l25 -27
-55 23 c-115 46 -222 70 -345 76 -66 3 -136 1 -155 -4 -33 -9 -30 -10 58 -26
254 -47 457 -151 612 -312 l55 -58 -45 28 c-207 125 -484 211 -657 203 l-68
-3 115 -28 c208 -52 362 -121 497 -223 58 -45 155 -144 140 -144 -2 0 -27 18
-57 40 -74 55 -210 124 -316 159 -85 28 -271 71 -310 71 -10 0 17 -21 61 -46
44 -26 84 -50 88 -54 5 -4 -30 3 -77 16 -118 31 -261 53 -456 68 -91 8 -151
14 -134 15 50 2 131 30 163 57 37 31 47 71 28 117 -16 37 -79 112 -107 127
-16 8 -17 5 -13 -35 3 -24 3 -55 -1 -69 -10 -40 -55 -85 -116 -116 -56 -28
-198 -70 -239 -70 -33 0 -160 68 -399 213 -229 139 -308 175 -357 163 -27 -7
-27 -7 -21 -69 4 -34 16 -100 27 -146 10 -46 18 -86 16 -88 -6 -6 -173 45
-266 81 -219 86 -355 172 -522 333 -310 298 -504 703 -576 1198 -24 169 -24
542 1 720 85 616 325 1150 701 1560 28 30 33 41 21 43 -21 5 -20 19 2 26 12 4
25 31 40 82 12 41 20 79 17 84 -3 4 -48 8 -101 9 -53 1 -99 3 -103 5 -3 2 -53
7 -111 11 -129 8 -320 31 -328 39 -3 3 6 6 19 6 32 0 331 -19 392 -25 27 -2
95 -7 151 -11 l102 -7 14 34 c7 19 24 60 38 92 14 31 23 60 20 63 -3 3 -32 7
-64 9 -33 3 -84 7 -114 10 -30 2 -89 7 -130 10 -141 11 -424 38 -570 55 -47 5
-110 10 -140 10 -36 0 -50 3 -41 9 8 5 20 7 28 4 7 -3 20 -2 30 1 15 6 15 7
-1 19 -14 10 -8 11 31 8 26 -3 38 -7 26 -9 -13 -2 -23 -8 -23 -13 0 -13 42 -1
52 14 4 7 11 7 21 -2 10 -8 17 -9 22 -1 3 5 12 10 18 10 7 0 6 -4 -3 -10 -12
-8 -10 -10 10 -11 14 -1 36 -2 50 -4 31 -3 188 -15 290 -21 41 -3 172 -14 289
-24 118 -11 222 -20 231 -20 23 0 46 50 28 61 -10 7 -8 9 5 9 10 0 15 5 12 10
-4 6 -14 9 -23 8 -11 -2 -16 3 -14 12 3 12 1 13 -9 3 -7 -7 -21 -13 -32 -13
-10 0 -16 -4 -13 -8 3 -5 -27 -9 -67 -9 l-72 0 65 7 c36 3 57 7 48 8 -10 1
-18 6 -18 11 0 6 -27 9 -59 7 -33 -1 -57 2 -54 7 3 5 -3 8 -13 7 -59 -6 -174
1 -174 11 0 8 28 9 98 4 134 -10 145 -11 245 -13 49 -1 86 -6 83 -11 -3 -4 5
-6 17 -4 20 4 74 69 65 79 -3 2 -44 7 -94 10 -49 4 -96 10 -104 15 -11 6 -11
8 -2 9 7 0 11 4 7 9 -3 6 3 9 14 8 11 0 17 -5 15 -9 -3 -4 4 -8 15 -8 11 0 23
5 26 10 4 6 11 8 16 4 5 -3 38 -8 72 -10 l62 -5 40 58 c22 31 63 85 92 119
l52 63 -27 5 c-15 3 -71 8 -124 12 -69 4 -96 10 -91 18 4 7 1 6 -9 -1 -8 -7
-17 -11 -19 -9 -2 2 -80 7 -174 10 -401 16 -774 35 -815 42 -29 5 -125 12
-325 24 l-140 8 148 -1 c141 -2 195 7 105 16 -24 3 34 4 127 2 194 -4 163 4
-135 31 -308 28 -340 33 -195 28 72 -3 146 -7 165 -9 19 -2 67 -7 105 -10 39
-3 90 -8 115 -10 25 -3 128 -9 230 -15 102 -6 217 -12 255 -15 70 -4 244 -10
670 -21 l230 -6 70 66 70 65 -81 1 c-74 0 -391 16 -471 24 -34 3 -58 15 -32
17 8 0 29 2 48 5 21 3 38 -1 43 -8 6 -10 8 -10 8 0 0 7 5 10 10 7 11 -7 43 -9
260 -20 74 -3 158 -8 187 -10 44 -2 56 1 84 24 l33 28 -199 6 c-109 4 -304 8
-434 9 -149 1 -210 4 -166 8 39 4 61 8 50 9 l-20 2 20 8 c11 5 22 7 25 6 3 -2
95 -6 205 -9 110 -3 279 -9 376 -12 161 -6 179 -5 205 12 l28 19 -29 6 c-17 4
-122 7 -234 8 -112 0 -201 4 -198 7 4 4 86 6 184 5 98 -1 174 1 171 5 -9 8
-49 9 -661 19 -269 4 -483 11 -476 16 7 4 17 5 21 3 4 -3 8 1 8 8 0 10 3 9 11
-2 8 -11 12 -12 16 -2 2 6 9 12 14 12 6 0 8 -4 5 -9 -3 -5 5 -8 18 -7 13 0 22
4 20 8 -6 9 63 5 72 -5 10 -10 26 -9 20 1 -2 4 7 8 22 9 23 1 24 1 7 -6 -12
-5 22 -8 85 -8 81 0 95 1 60 7 -45 8 251 5 490 -5 186 -8 381 -17 417 -19 51
-4 60 11 12 17 -24 4 -133 9 -242 13 -108 4 -199 9 -201 13 -2 3 114 2 258 -2
l263 -9 64 33 64 34 -160 7 c-88 4 -261 14 -385 23 -124 8 -288 20 -365 25
-77 5 -180 14 -230 20 -49 6 -110 13 -135 15 -25 3 -76 10 -115 15 -38 6 -92
12 -120 14 -27 2 33 2 135 -1 102 -3 201 -7 220 -9 19 -1 112 -5 205 -9 94 -3
199 -8 235 -11 36 -4 72 -6 80 -6 8 0 123 -9 255 -19 438 -35 507 -36 490 -9
-3 6 6 10 22 11 15 0 37 4 48 9 14 6 -2 9 -52 9 -42 1 -75 -4 -79 -10 -4 -7
-29 -9 -73 -5 -503 45 -626 53 -801 56 -39 0 -51 3 -40 10 13 8 12 10 -2 10
-10 0 -18 -5 -18 -11 0 -8 -19 -10 -62 -6 -35 4 -153 9 -263 12 -110 3 -234 8
-275 10 -41 2 -99 4 -128 5 -31 0 -51 4 -47 9 3 6 -12 12 -32 14 -21 2 7 3 62
1 55 -2 192 -6 305 -9 113 -3 230 -8 260 -11 49 -4 65 5 22 13 -24 5 -323 20
-527 27 -226 8 -345 17 -345 27 0 5 6 7 13 4 28 -9 377 -13 377 -4 0 5 -3 8
-7 8 -23 -4 -115 2 -111 7 5 5 362 -9 528 -21 36 -2 196 -5 355 -7 181 -1 258
-4 205 -8 -74 -5 -65 -6 65 -7 91 -1 142 2 130 7 -15 6 -6 9 35 10 30 1 66 1
79 0 13 -1 21 3 17 8 -3 5 -60 11 -126 11 -67 1 -142 4 -168 6 -157 15 -585
44 -649 45 -24 0 -43 3 -43 8 0 4 46 6 102 4 57 -2 100 -1 97 2 -3 3 -107 10
-230 16 -123 5 -259 13 -301 16 -51 4 -78 3 -78 -4 0 -5 15 -11 33 -11 17 -1
82 -5 142 -10 l110 -8 -95 -1 c-52 -1 -189 7 -305 18 -115 11 -239 20 -274 20
-35 0 -61 3 -57 8 8 7 13 8 42 11 8 0 13 5 10 9 -8 13 -159 7 -164 -7 -2 -6
-10 -11 -18 -11 -9 0 -12 4 -9 10 4 6 -32 8 -97 7 -57 -2 -119 0 -138 4 -34 6
-33 6 13 8 86 2 49 17 -75 30 -127 13 -161 21 -92 21 29 0 35 3 24 10 -8 5
-49 10 -90 10 -41 0 -88 2 -105 4 -16 2 -51 4 -77 5 -27 1 -48 6 -48 12 0 5 3
8 8 6 4 -3 75 -8 157 -12z m-368 -19 c48 -3 151 -8 228 -11 77 -4 146 -11 154
-15 26 -14 -375 -2 -479 15 -8 1 -23 -2 -32 -7 -13 -6 -16 -5 -12 6 6 15 32
26 46 19 3 -2 46 -5 95 -7z m7574 4 c16 5 29 5 29 1 0 -5 -18 -11 -41 -15 -44
-7 -70 1 -48 15 8 4 18 4 22 0 5 -5 22 -5 38 -1z m-2828 -7 c-13 -2 -33 -2
-45 0 -13 2 -3 4 22 4 25 0 35 -2 23 -4z m2530 0 c-7 -2 -19 -2 -25 0 -7 3 -2
5 12 5 14 0 19 -2 13 -5z m-2255 -10 c-21 -2 -55 -2 -75 0 -21 2 -4 4 37 4 41
0 58 -2 38 -4z m2395 0 c-18 -2 -48 -2 -65 0 -18 2 -4 4 32 4 36 0 50 -2 33
-4z m70 0 c-7 -2 -19 -2 -25 0 -7 3 -2 5 12 5 14 0 19 -2 13 -5z m-5148 -17
c17 -1 -16 -4 -73 -4 -57 -1 -101 1 -99 6 5 6 101 6 172 -2z m2715 -5 c87 -5
-19 -7 -300 -7 -239 1 -404 2 -365 4 49 2 65 6 55 13 -15 9 344 3 610 -10z
m2103 5 c4 -10 1 -13 -9 -9 -15 6 -19 23 -5 23 5 0 11 -7 14 -14z m731 6 c3
-5 -1 -9 -9 -9 -8 0 -12 4 -9 9 3 4 7 8 9 8 2 0 6 -4 9 -8z m413 2 c-3 -3 -12
-4 -19 -1 -8 3 -5 6 6 6 11 1 17 -2 13 -5z m-970 -19 c4 -12 -82 -14 -107 -3
-8 4 -24 9 -35 12 -11 2 16 4 59 3 45 -1 81 -7 83 -12z m-3024 -2 c-7 -2 -19
-2 -25 0 -7 3 -2 5 12 5 14 0 19 -2 13 -5z m3107 4 c-10 -9 -70 -16 -70 -9 0
4 17 9 37 10 21 2 35 1 33 -1z m1613 -11 c117 -9 68 -17 -74 -12 -79 2 -216 5
-304 7 -136 2 -147 4 -75 8 87 6 348 4 453 -3z m-9856 -12 c-3 -3 -12 -4 -19
-1 -8 3 -5 6 6 6 11 1 17 -2 13 -5z m91 -1 c-10 -2 -28 -2 -40 0 -13 2 -5 4
17 4 22 1 32 -1 23 -4z m542 -8 c96 -4 215 -8 264 -11 74 -3 87 -2 83 10 -4
11 0 13 16 9 12 -2 59 -4 105 -4 45 1 82 -3 82 -8 0 -10 136 -25 193 -22 22 2
37 -2 37 -9 0 -6 -4 -9 -9 -6 -5 4 -11 1 -13 -5 -2 -7 -16 -7 -43 -1 -22 5
-53 8 -70 7 -16 -1 -33 3 -37 9 -5 7 -8 7 -8 -2 0 -10 -11 -12 -42 -8 -24 3
-122 8 -218 11 -96 2 -249 9 -340 15 -91 6 -201 12 -245 12 l-80 1 65 6 c36 3
70 5 75 4 6 -1 89 -4 185 -8z m4567 9 c-3 -3 -12 -4 -19 -1 -8 3 -5 6 6 6 11
1 17 -2 13 -5z m60 0 c-3 -3 -12 -4 -19 -1 -8 3 -5 6 6 6 11 1 17 -2 13 -5z
m43 -4 c0 -5 -7 -10 -15 -10 -8 0 -15 5 -15 10 0 6 7 10 15 10 8 0 15 -4 15
-10z m45 0 c3 -5 1 -10 -4 -10 -6 0 -11 5 -11 10 0 6 2 10 4 10 3 0 8 -4 11
-10z m-4112 -7 c-7 -2 -21 -2 -30 0 -10 3 -4 5 12 5 17 0 24 -2 18 -5z m4154
1 c-3 -3 -12 -4 -19 -1 -8 3 -5 6 6 6 11 1 17 -2 13 -5z m-5670 -10 c-3 -3
-12 -4 -19 -1 -8 3 -5 6 6 6 11 1 17 -2 13 -5z m211 -5 c62 1 102 -2 102 -9 0
-16 -236 -8 -252 9 -11 11 -8 12 17 6 17 -4 76 -6 133 -6z m1902 -5 c0 -2 -15
-4 -32 -4 -23 0 -29 3 -19 9 12 8 51 4 51 -5z m6154 6 c60 0 106 -3 103 -7 -4
-3 -42 -6 -84 -6 -78 1 -78 1 -23 -7 77 -11 161 -11 135 0 -26 11 72 13 130 3
l40 -7 -50 -7 c-27 -3 -54 -2 -59 2 -15 13 -38 11 -30 -3 5 -8 -23 -9 -112 -4
-66 3 -130 8 -143 11 -26 5 -112 13 -258 25 -81 7 -68 8 72 5 94 -2 219 -4
279 -5z m586 -6 c0 -2 -30 -3 -67 -2 -62 1 -64 2 -23 7 43 6 90 3 90 -5z m200
3 c8 -3 24 -8 35 -11 25 -6 -151 -4 -183 2 -16 3 -20 7 -11 12 13 9 134 6 159
-3z m-8675 -7 c4 -6 -7 -10 -24 -10 -17 0 -31 4 -31 8 0 11 48 13 55 2z m6848
3 c-13 -2 -33 -2 -45 0 -13 2 -3 4 22 4 25 0 35 -2 23 -4z m-6785 -10 c-10 -2
-26 -2 -35 0 -10 3 -2 5 17 5 19 0 27 -2 18 -5z m95 0 c-7 -2 -21 -2 -30 0
-10 3 -4 5 12 5 17 0 24 -2 18 -5z m9190 0 c-7 -2 -19 -2 -25 0 -7 3 -2 5 12
5 14 0 19 -2 13 -5z m87 -3 c23 -7 22 -8 -10 -9 -19 0 -42 4 -50 9 -12 8 -10
10 10 9 14 -1 36 -5 50 -9z m-9040 -10 c0 -9 -179 -3 -189 6 -2 2 39 4 92 4
56 0 97 -4 97 -10z m1030 4 c-36 -8 -100 -9 -100 -2 0 5 26 7 58 7 31 -1 50
-3 42 -5z m6115 -4 c22 -6 12 -8 -38 -7 -37 0 -70 4 -73 9 -6 10 70 9 111 -2z
m1952 4 c-3 -3 -12 -4 -19 -1 -8 3 -5 6 6 6 11 1 17 -2 13 -5z m53 2 c0 -9
-30 -14 -35 -6 -4 6 3 10 14 10 12 0 21 -2 21 -4z m-8863 -25 c201 -24 458
-38 450 -25 -5 9 31 7 383 -16 229 -15 287 -11 155 10 -59 9 -58 9 20 4 276
-17 281 -17 250 -26 -16 -5 -64 -8 -105 -6 -41 1 -80 0 -85 -3 -15 -7 -576 2
-571 9 2 4 -51 7 -117 7 -111 0 -277 10 -338 20 -13 2 -74 6 -136 9 -64 3
-125 11 -145 20 l-33 14 52 1 c28 1 127 -8 220 -18z m3040 13 c-3 -3 -12 -4
-19 -1 -8 3 -5 6 6 6 11 1 17 -2 13 -5z m4518 -4 c-3 -5 -14 -10 -23 -10 -15
0 -15 2 -2 10 20 13 33 13 25 0z m121 -2 c83 0 78 -6 -12 -13 -58 -4 -71 -2
-71 9 0 9 4 13 9 10 5 -3 38 -6 74 -6z m-8316 -6 c0 -4 -16 -6 -35 -4 -19 2
-35 6 -35 8 0 2 16 4 35 4 19 0 35 -4 35 -8z m71 -10 c-24 -2 -47 0 -52 5 -4
4 15 6 44 3 l52 -5 -44 -3z m3706 12 c-3 -3 -12 -4 -19 -1 -8 3 -5 6 6 6 11 1
17 -2 13 -5z m71 -1 c-10 -2 -28 -2 -40 0 -13 2 -5 4 17 4 22 1 32 -1 23 -4z
m3775 0 c-13 -2 -33 -2 -45 0 -13 2 -3 4 22 4 25 0 35 -2 23 -4z m-7463 -9 c0
-8 -19 -13 -24 -6 -3 5 1 9 9 9 8 0 15 -2 15 -3z m2327 0 c-3 -3 -12 -4 -19
-1 -8 3 -5 6 6 6 11 1 17 -2 13 -5z m4958 -4 c3 -5 1 -10 -4 -10 -6 0 -11 5
-11 10 0 6 2 10 4 10 3 0 8 -4 11 -10z m338 3 c-13 -2 -35 -2 -50 0 -16 2 -5
4 22 4 28 0 40 -2 28 -4z m-7478 -13 c-3 -5 -12 -10 -20 -10 -8 0 -17 5 -20
10 -4 6 5 10 20 10 15 0 24 -4 20 -10z m45 0 c13 -9 13 -10 0 -10 -13 0 -13
-1 0 -11 10 -7 11 -9 2 -7 -8 2 -13 7 -12 12 1 5 -4 13 -12 17 -7 5 -8 9 -3 9
6 0 17 -5 25 -10z m1210 2 c0 -4 -17 -6 -37 -4 -59 5 -63 10 -10 11 26 1 47
-3 47 -7z m3328 1 c-26 -2 -71 -2 -100 0 -29 2 -8 3 47 3 55 0 79 -1 53 -3z
m3662 -7 c8 -2 -19 -4 -60 -5 -41 0 -80 3 -87 7 -11 7 113 5 147 -2z m-8970
-6 c0 -5 -5 -10 -11 -10 -5 0 -7 5 -4 10 3 6 8 10 11 10 2 0 4 -4 4 -10z m34
-5 c-4 -8 -11 -12 -16 -9 -6 4 -5 10 3 15 19 12 19 11 13 -6z m8026 6 c0 -5
-9 -7 -20 -4 -11 3 -20 7 -20 9 0 2 9 4 20 4 11 0 20 -4 20 -9z m37 3 c-3 -3
-12 -4 -19 -1 -8 3 -5 6 6 6 11 1 17 -2 13 -5z m406 -1 c-13 -2 -35 -2 -50 0
-16 2 -5 4 22 4 28 0 40 -2 28 -4z m957 3 c0 -2 -7 -7 -16 -10 -8 -3 -12 -2
-9 4 6 10 25 14 25 6z m-9350 -18 c0 -4 28 -5 63 -3 34 2 52 1 40 -1 -13 -3
-23 -9 -23 -13 0 -5 -17 -8 -37 -6 -79 4 -141 30 -73 30 17 0 30 -3 30 -7z
m8058 5 c-10 -2 -28 -2 -40 0 -13 2 -5 4 17 4 22 1 32 -1 23 -4z m59 1 c-3 -3
-12 -4 -19 -1 -8 3 -5 6 6 6 11 1 17 -2 13 -5z m400 0 c-3 -3 -12 -4 -19 -1
-8 3 -5 6 6 6 11 1 17 -2 13 -5z m-8290 -10 c-3 -3 -12 -4 -19 -1 -8 3 -5 6 6
6 11 1 17 -2 13 -5z m8061 -1 c-27 -2 -69 -2 -95 0 -27 2 -5 3 47 3 52 0 74
-1 48 -3z m-7881 -9 c-3 -3 -12 -4 -19 -1 -8 3 -5 6 6 6 11 1 17 -2 13 -5z
m443 -13 c40 -10 21 -14 -55 -10 -27 1 -75 3 -105 4 -30 1 -91 4 -135 5 l-80
4 105 5 c127 7 223 4 270 -8z m1503 12 c-13 -2 -35 -2 -50 0 -16 2 -5 4 22 4
28 0 40 -2 28 -4z m73 -11 c-10 -2 -22 0 -28 6 -6 6 0 7 19 4 21 -5 23 -7 9
-10z m6047 11 c-23 -2 -64 -2 -90 0 -26 2 -7 3 42 3 50 0 71 -1 48 -3z m-7515
-10 c-10 -2 -26 -2 -35 0 -10 3 -2 5 17 5 19 0 27 -2 18 -5z m7645 0 c-13 -2
-33 -2 -45 0 -13 2 -3 4 22 4 25 0 35 -2 23 -4z m-7535 -10 c-10 -2 -28 -2
-40 0 -13 2 -5 4 17 4 22 1 32 -1 23 -4z m287 -12 c18 -1 25 -5 20 -10 -6 -6
-28 -6 -55 -1 -25 5 -73 9 -107 10 -35 0 -63 3 -63 8 0 4 39 4 88 0 48 -3 100
-7 117 -7z m7538 12 c-7 -2 -19 -2 -25 0 -7 3 -2 5 12 5 14 0 19 -2 13 -5z
m-5183 -19 c0 -2 -18 -4 -40 -4 -22 0 -40 3 -40 8 0 4 18 6 40 4 22 -2 40 -6
40 -8z m4640 0 c0 -2 -9 -4 -20 -4 -11 0 -20 4 -20 9 0 5 9 7 20 4 11 -3 20
-7 20 -9z m-6850 -4 c0 -12 -83 -11 -102 1 -8 5 10 9 45 9 32 0 57 -4 57 -10z
m65 0 c16 -7 13 -9 -17 -9 -21 -1 -38 4 -38 9 0 12 27 12 55 0z m6959 -2 c5
-10 7 -10 12 0 6 14 34 17 34 3 0 -13 68 -19 80 -7 6 6 15 5 25 -4 12 -10 15
-10 16 1 0 10 2 11 6 2 6 -15 33 -17 33 -3 0 6 9 10 21 10 11 0 18 -4 14 -9
-3 -6 3 -10 12 -11 10 0 47 -4 83 -9 49 -7 25 -8 -100 -5 -91 2 -311 7 -490
10 -179 3 -327 8 -329 10 -2 2 93 4 213 4 142 0 215 3 211 10 -4 6 23 10 74
10 54 0 81 -4 85 -12z m599 5 c-7 -2 -19 -2 -25 0 -7 3 -2 5 12 5 14 0 19 -2
13 -5z m680 0 c-7 -2 -19 -2 -25 0 -7 3 -2 5 12 5 14 0 19 -2 13 -5z m90 0
c-7 -2 -21 -2 -30 0 -10 3 -4 5 12 5 17 0 24 -2 18 -5z m-8860 -10 c-7 -2 -19
-2 -25 0 -7 3 -2 5 12 5 14 0 19 -2 13 -5z m200 -3 c4 0 7 -5 7 -11 0 -6 -8
-8 -17 -5 -10 3 -45 6 -78 7 -33 1 -69 6 -80 11 -12 5 17 6 70 3 50 -2 93 -4
98 -5z m450 3 c-7 -2 -21 -2 -30 0 -10 3 -4 5 12 5 17 0 24 -2 18 -5z m85 0
c-10 -2 -28 -2 -40 0 -13 2 -5 4 17 4 22 1 32 -1 23 -4z m59 1 c-3 -3 -12 -4
-19 -1 -8 3 -5 6 6 6 11 1 17 -2 13 -5z m161 -11 c-16 -2 -40 -2 -55 0 -16 2
-3 4 27 4 30 0 43 -2 28 -4z m90 0 c-10 -2 -28 -2 -40 0 -13 2 -5 4 17 4 22 1
32 -1 23 -4z m172 -3 c51 0 79 -4 70 -9 -18 -10 -190 -2 -190 9 0 5 8 7 18 5
9 -2 55 -4 102 -5z m-947 -7 c-7 -2 -19 -2 -25 0 -7 3 -2 5 12 5 14 0 19 -2
13 -5z m61 -2 c4 -5 -3 -7 -14 -4 -23 6 -26 13 -6 13 8 0 17 -4 20 -9z m-457
-7 c-3 -3 -12 -4 -19 -1 -8 3 -5 6 6 6 11 1 17 -2 13 -5z m46 -1 c-7 -2 -19
-2 -25 0 -7 3 -2 5 12 5 14 0 19 -2 13 -5z m470 0 c-7 -2 -19 -2 -25 0 -7 3
-2 5 12 5 14 0 19 -2 13 -5z m236 -9 c3 -3 -43 -3 -104 0 -60 4 -112 10 -115
13 -3 3 44 3 104 -1 60 -3 112 -8 115 -12z m8269 9 c-27 -2 -69 -2 -95 0 -27
2 -5 3 47 3 52 0 74 -1 48 -3z m-8861 -9 c-3 -3 -12 -4 -19 -1 -8 3 -5 6 6 6
11 1 17 -2 13 -5z m630 0 c-3 -3 -12 -4 -19 -1 -8 3 -5 6 6 6 11 1 17 -2 13
-5z m256 -1 c-13 -2 -33 -2 -45 0 -13 2 -3 4 22 4 25 0 35 -2 23 -4z m324 -13
c94 -6 188 -10 209 -10 20 0 35 -3 31 -6 -8 -9 -520 17 -530 26 -5 4 20 6 55
4 34 -2 140 -9 235 -14z m7840 14 c-3 -3 -12 -4 -19 -1 -8 3 -5 6 6 6 11 1 17
-2 13 -5z m-9529 -11 c-10 -2 -28 -2 -40 0 -13 2 -5 4 17 4 22 1 32 -1 23 -4z
m599 1 c-3 -3 -12 -4 -19 -1 -8 3 -5 6 6 6 11 1 17 -2 13 -5z m58 -4 c3 -6 -1
-7 -9 -4 -18 7 -21 14 -7 14 6 0 13 -4 16 -10z m-500 -10 l30 -8 -30 0 c-16 0
-41 4 -55 8 l-25 8 25 0 c14 0 39 -4 55 -8z m562 4 c-3 -3 -12 -4 -19 -1 -8 3
-5 6 6 6 11 1 17 -2 13 -5z m585 -9 c76 -3 172 -10 215 -15 43 -5 119 -11 168
-15 50 -3 110 -8 135 -10 25 -3 69 -7 99 -10 30 -3 57 -8 60 -11 7 -7 -211 3
-344 16 -49 5 -193 14 -320 21 -126 6 -237 13 -245 16 -24 8 18 20 59 17 20
-1 98 -5 173 -9z m-1062 1 c0 -9 -30 -14 -35 -6 -4 6 3 10 14 10 12 0 21 -2
21 -4z m80 -12 c0 -2 -16 -4 -35 -4 -19 0 -35 4 -35 8 0 4 16 6 35 4 19 -2 35
-6 35 -8z m563 9 c-7 -2 -21 -2 -30 0 -10 3 -4 5 12 5 17 0 24 -2 18 -5z m163
0 c-7 -7 -77 -5 -85 3 -2 2 17 4 44 4 27 0 45 -3 41 -7z m7348 -22 c6 -8 83
-16 286 -27 63 -4 117 -8 119 -10 7 -7 -107 -4 -259 6 -80 5 -208 12 -285 16
-194 9 -204 23 -18 24 83 0 154 -4 157 -9z m54 2 c-10 -2 -26 -2 -35 0 -10 3
-2 5 17 5 19 0 27 -2 18 -5z m120 0 c-10 -2 -26 -2 -35 0 -10 3 -2 5 17 5 19
0 27 -2 18 -5z m49 1 c-3 -3 -12 -4 -19 -1 -8 3 -5 6 6 6 11 1 17 -2 13 -5z
m86 -1 c-13 -2 -35 -2 -50 0 -16 2 -5 4 22 4 28 0 40 -2 28 -4z m54 1 c-3 -3
-12 -4 -19 -1 -8 3 -5 6 6 6 11 1 17 -2 13 -5z m100 -10 c-3 -3 -12 -4 -19 -1
-8 3 -5 6 6 6 11 1 17 -2 13 -5z m-8832 -29 c61 -4 126 -8 145 -11 75 -8 270
-24 370 -29 58 -3 166 -10 240 -15 74 -6 187 -13 250 -16 63 -4 117 -9 120
-11 6 -6 -340 2 -435 10 -38 3 -135 11 -215 17 -80 5 -165 12 -190 15 -130 12
-283 23 -430 30 -83 4 -82 3 -76 14 3 5 30 8 58 6 29 -2 103 -6 163 -10z
m-577 -10 c8 -8 -78 -4 -113 5 -20 5 -7 7 39 4 38 -2 71 -6 74 -9z m1389 9
c-3 -3 -12 -4 -19 -1 -8 3 -5 6 6 6 11 1 17 -2 13 -5z m40 0 c-3 -3 -12 -4
-19 -1 -8 3 -5 6 6 6 11 1 17 -2 13 -5z m173 -8 c14 -2 -10 -4 -52 -5 -43 0
-78 2 -78 7 0 6 70 6 130 -2z m2540 -2 c0 -2 -7 -4 -15 -4 -8 0 -15 4 -15 10
0 5 7 7 15 4 8 -4 15 -8 15 -10z m-3972 1 c-7 -8 -148 -8 -155 -1 -4 3 31 6
77 6 46 0 81 -2 78 -5z m8435 -2 c-13 -2 -35 -2 -50 0 -16 2 -5 4 22 4 28 0
40 -2 28 -4z m-623 -19 c0 -2 -12 -4 -27 -4 -21 0 -24 3 -14 9 13 8 41 5 41
-5z m182 9 c-6 -2 -10 -8 -8 -12 3 -4 -1 -8 -8 -8 -8 0 -12 6 -9 14 3 7 13 13
22 12 10 0 11 -2 3 -6z m48 -14 c0 -5 -9 -9 -20 -9 -13 0 -18 5 -14 14 6 15
34 11 34 -5z m203 2 c32 0 56 -5 53 -10 -4 -5 -32 -8 -64 -7 -31 2 -86 4 -122
5 -41 1 -60 4 -51 10 7 5 39 8 70 6 31 -1 82 -3 114 -4z m-6473 -21 c99 -12
509 -38 693 -45 87 -3 127 -1 127 7 0 7 5 6 15 -2 8 -7 15 -8 15 -3 0 12 79
10 380 -8 157 -10 201 -15 145 -17 -44 -1 -147 1 -230 6 -82 4 -151 4 -153 0
-2 -4 -12 -8 -22 -8 -10 0 -22 -4 -25 -10 -8 -14 -38 -13 -53 2 -8 8 -63 13
-175 14 -167 2 -428 13 -437 19 -3 2 -84 6 -180 10 -96 4 -178 12 -181 17 -3
5 -10 8 -15 7 -18 -6 -134 12 -139 21 -6 10 95 6 235 -10z m4605 5 c55 -4 120
-8 145 -10 100 -8 410 -15 855 -20 644 -7 1074 -14 1110 -19 17 -3 63 -8 103
-12 39 -4 72 -11 72 -15 0 -5 -6 -7 -12 -4 -34 11 -695 26 -1298 30 -371 2
-702 6 -735 9 -87 7 -412 28 -590 37 l-30 1 30 8 c31 7 177 5 350 -5z m1955 5
c0 -5 -2 -10 -4 -10 -3 0 -8 5 -11 10 -3 6 -1 10 4 10 6 0 11 -4 11 -10z m780
-9 c69 -4 107 -9 85 -11 -22 -1 -42 -2 -45 -2 -193 7 -291 14 -315 22 -22 7
-6 8 60 4 50 -3 146 -9 215 -13z m-9287 -8 c-7 -2 -19 -2 -25 0 -7 3 -2 5 12
5 14 0 19 -2 13 -5z m54 1 c-3 -3 -12 -4 -19 -1 -8 3 -5 6 6 6 11 1 17 -2 13
-5z m161 -3 c45 -1 82 -5 82 -10 0 -4 -26 -6 -57 -4 -37 3 -54 1 -48 -5 15
-14 252 -25 260 -12 9 15 22 12 22 -5 0 -12 -14 -15 -66 -15 -106 0 -328 22
-305 31 18 7 18 8 -3 8 -12 1 -24 5 -27 10 -3 5 9 7 27 5 17 -1 69 -3 115 -3z
m9270 2 c-10 -2 -28 -2 -40 0 -13 2 -5 4 17 4 22 1 32 -1 23 -4z m-9408 -29
c0 -2 -15 -4 -32 -4 -23 0 -29 3 -19 9 12 8 51 4 51 -5z m293 9 c-7 -2 -19 -2
-25 0 -7 3 -2 5 12 5 14 0 19 -2 13 -5z m8640 0 c-7 -2 -19 -2 -25 0 -7 3 -2
5 12 5 14 0 19 -2 13 -5z m-8173 -13 c0 -7 6 -7 19 -1 10 6 20 9 22 6 2 -2 63
-7 134 -10 72 -4 157 -9 190 -11 33 -2 138 -3 233 -3 132 -1 172 -4 173 -13 0
-10 2 -10 6 0 2 6 8 10 11 8 4 -2 115 -7 247 -11 411 -11 489 -15 495 -24 6
-11 45 -18 115 -22 30 -1 40 -4 25 -6 -39 -8 -231 8 -224 18 3 5 0 9 -5 9 -6
0 -11 -4 -11 -8 0 -13 -44 -12 -52 1 -6 9 -8 9 -8 0 0 -15 -31 -17 -45 -4 -14
12 -68 24 -61 13 3 -5 -34 -9 -84 -10 -63 0 -90 3 -90 11 0 9 -2 9 -8 0 -8
-12 -40 -12 -79 1 -15 5 -23 3 -23 -5 0 -8 -4 -8 -12 -2 -7 6 -57 10 -110 9
-73 -1 -98 2 -98 11 0 7 -8 13 -17 13 -15 0 -16 -2 -3 -10 13 -8 12 -10 -2
-10 -10 0 -18 5 -18 10 0 6 -4 10 -10 10 -5 0 -7 -8 -4 -17 5 -15 4 -15 -4 -4
-9 13 -13 13 -27 1 -14 -12 -18 -12 -26 1 -5 8 -9 9 -9 4 0 -7 -70 -6 -207 2
-218 13 -377 21 -453 24 -25 1 -36 4 -25 7 l20 5 -20 8 c-16 6 -14 8 13 8 17
1 32 -4 32 -9z m-270 -11 c0 -5 -18 -9 -40 -9 -22 0 -40 4 -40 8 0 4 18 8 40
9 22 1 40 -2 40 -8z m95 1 c15 -6 6 -9 -32 -9 -29 -1 -53 4 -53 9 0 12 57 12
85 0z m45 0 c0 -5 -5 -10 -11 -10 -5 0 -7 5 -4 10 3 6 8 10 11 10 2 0 4 -4 4
-10z m8893 3 c-7 -2 -19 -2 -25 0 -7 3 -2 5 12 5 14 0 19 -2 13 -5z m-2629
-32 c4 -5 -3 -7 -14 -4 -23 6 -26 13 -6 13 8 0 17 -4 20 -9z m36 -5 c0 -8 -4
-17 -8 -20 -4 -2 -8 4 -8 15 0 10 4 19 8 19 4 0 8 -6 8 -14z m90 6 c0 -4 -9
-8 -20 -9 -11 -1 -20 2 -20 5 0 4 9 8 20 9 11 1 20 -2 20 -5z m95 -2 c48 0 53
-2 48 -20 -4 -14 -9 -17 -17 -11 -16 13 -86 23 -86 11 0 -5 -6 -7 -13 -4 -8 3
-14 12 -14 20 0 9 6 13 14 9 8 -3 39 -5 68 -5z m423 -11 c71 1 82 -1 82 -15 0
-15 -12 -16 -132 -9 -73 4 -155 8 -183 9 -27 1 -67 3 -87 4 -21 1 -38 7 -38
13 0 7 41 9 138 4 75 -4 174 -7 220 -6z m1499 5 c-3 -3 -12 -4 -19 -1 -8 3 -5
6 6 6 11 1 17 -2 13 -5z m91 -8 c-7 -7 -19 -11 -26 -8 -11 4 -11 6 0 13 7 5
19 9 26 9 10 0 10 -3 0 -14z m-2278 -6 c7 -4 -22 -7 -63 -7 -42 1 -73 5 -70
10 6 9 117 7 133 -3z m1119 -6 c2 -2 -47 -5 -110 -6 -63 0 -140 -2 -171 -2
-55 -1 -66 3 -52 16 6 7 326 -2 333 -8z m-1072 0 c-3 -3 -12 -4 -19 -1 -8 3
-5 6 6 6 11 1 17 -2 13 -5z m76 -1 c-7 -2 -19 -2 -25 0 -7 3 -2 5 12 5 14 0
19 -2 13 -5z m1145 0 c-27 -2 -69 -2 -95 0 -27 2 -5 3 47 3 52 0 74 -1 48 -3z
m189 1 c-10 -10 -114 -12 -129 -3 -8 5 18 9 61 9 41 0 72 -3 68 -6z m143 -4
c13 -8 13 -10 -2 -10 -9 0 -20 5 -23 10 -8 13 5 13 25 0z m-7445 -13 c33 -2
95 -4 138 -5 64 -2 77 -5 77 -18 0 -12 -3 -14 -12 -6 -7 5 -48 8 -90 7 -53 -3
-78 0 -78 8 0 8 -3 8 -12 -1 -13 -13 -32 -17 -25 -4 3 4 -36 8 -87 9 -50 2
-104 7 -121 13 -30 9 -12 9 210 -3z m7642 7 c-3 -3 -12 -4 -19 -1 -8 3 -5 6 6
6 11 1 17 -2 13 -5z m-1192 -19 c88 -4 163 -10 167 -14 7 -7 -32 -6 -217 3
-49 2 -137 5 -195 7 -75 1 -92 4 -60 8 49 7 70 6 305 -4z m-6900 -5 l30 -8
-30 0 c-16 0 -41 4 -55 8 l-25 8 25 0 c14 0 39 -4 55 -8z m2133 3 c-32 -2 -84
-2 -115 0 -32 2 -6 3 57 3 63 0 89 -1 58 -3z m451 2 c-7 -7 -379 -8 -386 -1
-4 3 83 6 192 6 109 0 196 -2 194 -5z m101 1 c0 -9 -39 -13 -51 -5 -10 6 -4 9
19 9 17 0 32 -2 32 -4z m3380 -6 c0 -5 -5 -10 -11 -10 -5 0 -7 5 -4 10 3 6 8
10 11 10 2 0 4 -4 4 -10z m1557 4 c-3 -3 -12 -4 -19 -1 -8 3 -5 6 6 6 11 1 17
-2 13 -5z m-6892 -14 c-3 -5 -15 -10 -25 -10 -10 0 -22 5 -25 10 -4 6 7 10 25
10 18 0 29 -4 25 -10z m135 -5 c0 -11 -6 -12 -25 -5 -13 5 -27 5 -30 1 -6 -10
-43 -3 -50 9 -3 4 20 8 50 9 41 0 55 -3 55 -14z m157 -1 c-7 -8 -147 -11 -147
-3 0 12 10 14 80 11 39 -2 69 -6 67 -8z m6113 6 c-19 -13 -30 -13 -30 0 0 6
10 10 23 10 18 0 19 -2 7 -10z m180 0 c0 -5 -4 -10 -10 -10 -5 0 -10 5 -10 10
0 6 5 10 10 10 6 0 10 -4 10 -10z m-5320 -14 c253 -9 248 -9 200 -16 -42 -6
-43 -6 -15 -12 17 -3 -10 -5 -60 -5 -84 0 -86 1 -30 7 l60 7 -65 3 c-36 1 -69
1 -75 -1 -11 -3 -355 1 -565 7 -305 8 -402 13 -408 20 -6 6 701 -2 958 -10z
m5423 7 c-18 -2 -48 -2 -65 0 -18 2 -4 4 32 4 36 0 50 -2 33 -4z m537 -4 c11
-7 0 -9 -38 -5 -30 2 -56 7 -60 10 -10 11 83 6 98 -5z m98 -3 c3 -3 -9 -6 -26
-6 -18 0 -32 4 -32 9 0 9 48 6 58 -3z m-7931 -2 c-3 -3 -12 -4 -19 -1 -8 3 -5
6 6 6 11 1 17 -2 13 -5z m6340 0 c-3 -3 -12 -4 -19 -1 -8 3 -5 6 6 6 11 1 17
-2 13 -5z m-6260 -10 c-3 -3 -12 -4 -19 -1 -8 3 -5 6 6 6 11 1 17 -2 13 -5z
m129 -1 c-7 -7 -98 -5 -105 3 -2 2 22 4 54 4 32 0 55 -3 51 -7z m479 -7 c17
-2 89 -7 160 -10 72 -4 159 -9 195 -11 160 -11 277 -18 300 -17 20 1 21 -1 7
-7 -14 -5 -145 -6 -217 -1 -3 0 -79 2 -170 5 -91 3 -196 7 -235 10 -78 5 -203
12 -375 21 -63 3 -119 9 -123 13 -8 8 404 5 458 -3z m1465 10 c0 -11 -19 -15
-25 -6 -3 5 1 10 9 10 9 0 16 -2 16 -4z m4125 -11 c109 -3 163 -2 150 4 -14 7
11 10 83 10 79 1 107 -3 118 -14 14 -13 10 -15 -31 -15 -28 0 -44 4 -40 10 3
6 0 10 -9 10 -8 0 -16 -6 -18 -12 -6 -16 -109 -17 -455 -5 -268 10 -269 10
-280 21 -4 5 64 6 152 2 88 -3 237 -8 330 -11z m1143 -5 c-10 -6 -25 -7 -40
-1 -20 9 -18 10 17 10 31 0 36 -2 23 -9z m-354 -20 c33 -5 64 -14 69 -19 7 -7
4 -9 -9 -7 -20 4 -108 12 -229 22 -38 3 -107 5 -152 4 -49 0 -84 4 -88 10 -8
13 312 5 409 -10z m1696 1 c0 -4 -16 -5 -35 -3 -19 2 -35 7 -35 11 0 4 16 5
35 3 19 -2 35 -7 35 -11z m-1195 -1 c3 -5 1 -10 -4 -10 -6 0 -11 5 -11 10 0 6
2 10 4 10 3 0 8 -4 11 -10z m55 -5 c0 -8 -4 -15 -9 -15 -13 0 -22 16 -14 24
11 11 23 6 23 -9z m208 -6 c5 -14 32 -11 32 4 0 9 2 9 8 0 8 -13 168 -27 351
-32 62 -1 81 -9 30 -13 -26 -1 -242 10 -324 17 -27 3 -93 7 -145 10 -52 3
-104 8 -115 10 -11 2 -23 4 -27 4 -5 1 -8 4 -8 9 0 10 194 2 198 -9z m982 11
c0 -5 -10 -10 -22 -9 -22 0 -22 1 -3 9 11 5 21 9 23 9 1 1 2 -3 2 -9z m106 -3
c4 -4 -2 -7 -14 -7 -12 0 -22 4 -22 9 0 10 26 9 36 -2z m-49 -3 c-3 -3 -12 -4
-19 -1 -8 3 -5 6 6 6 11 1 17 -2 13 -5z m-7391 -11 c-10 -10 -76 -10 -76 0 0
4 19 7 42 7 23 0 38 -3 34 -7z m49 -11 c-3 -3 -11 0 -18 7 -9 10 -8 11 6 5 10
-3 15 -9 12 -12z m92 2 c-3 -3 -12 -4 -19 -1 -8 3 -5 6 6 6 11 1 17 -2 13 -5z
m216 -1 c-7 -2 -21 -2 -30 0 -10 3 -4 5 12 5 17 0 24 -2 18 -5z m100 0 c-7 -2
-19 -2 -25 0 -7 3 -2 5 12 5 14 0 19 -2 13 -5z m76 -9 c10 -9 -35 -3 -49 6
-11 8 -7 9 15 4 17 -4 32 -8 34 -10z m31 12 c0 -3 -4 -8 -10 -11 -5 -3 -10 -1
-10 4 0 6 5 11 10 11 6 0 10 -2 10 -4z m65 -6 c3 -5 1 -10 -4 -10 -6 0 -11 5
-11 10 0 6 2 10 4 10 3 0 8 -4 11 -10z m4199 2 c3 -5 -1 -9 -9 -9 -8 0 -12 4
-9 9 3 4 7 8 9 8 2 0 6 -4 9 -8z m-4054 -12 c0 -5 -5 -10 -11 -10 -5 0 -7 5
-4 10 3 6 8 10 11 10 2 0 4 -4 4 -10z m4003 3 c-13 -2 -33 -2 -45 0 -13 2 -3
4 22 4 25 0 35 -2 23 -4z m242 -3 c3 -6 -1 -7 -9 -4 -18 7 -21 14 -7 14 6 0
13 -4 16 -10z m284 1 c55 -2 31 -10 -44 -16 -59 -4 -66 -3 -51 8 10 8 28 12
40 11 11 -1 36 -3 55 -3z m229 2 c-27 -2 -69 -2 -95 0 -27 2 -5 3 47 3 52 0
74 -1 48 -3z m200 -10 c-16 -2 -40 -2 -55 0 -16 2 -3 4 27 4 30 0 43 -2 28 -4z
m343 -8 c90 -9 174 -18 187 -20 13 -2 82 -7 155 -11 73 -3 135 -8 138 -10 3
-2 45 -4 93 -5 52 -1 82 -5 75 -10 -8 -4 -23 -6 -34 -4 -11 2 -85 6 -165 10
-234 9 -728 49 -738 60 -10 10 127 5 289 -10z m-974 -1 c-3 -3 -12 -4 -19 -1
-8 3 -5 6 6 6 11 1 17 -2 13 -5z m71 -1 c-10 -2 -28 -2 -40 0 -13 2 -5 4 17 4
22 1 32 -1 23 -4z m1709 1 c-3 -3 -12 -4 -19 -1 -8 3 -5 6 6 6 11 1 17 -2 13
-5z m193 2 c0 -3 -4 -8 -10 -11 -5 -3 -10 -1 -10 4 0 6 5 11 10 11 6 0 10 -2
10 -4z m-7966 -45 c43 -5 85 -7 92 -4 8 3 14 0 14 -6 0 -6 -8 -12 -17 -13 -10
0 0 -4 22 -8 33 -6 30 -7 -15 -4 -30 3 -80 6 -110 8 -30 3 -66 6 -80 9 -14 2
-38 5 -54 5 -23 2 -26 5 -17 16 8 9 25 13 49 10 20 -3 72 -8 116 -13z m-1437
3 c-3 -3 -12 -4 -19 -1 -8 3 -5 6 6 6 11 1 17 -2 13 -5z m73 -10 c0 -2 -11 -4
-25 -4 -14 0 -25 4 -25 9 0 4 11 6 25 3 14 -2 25 -6 25 -8z m408 -1 c-15 -2
-42 -2 -60 0 -18 2 -6 4 27 4 33 0 48 -2 33 -4z m8617 -3 c3 -5 -1 -10 -10
-10 -9 0 -13 5 -10 10 3 6 8 10 10 10 2 0 7 -4 10 -10z m-8492 -7 c-13 -2 -35
-2 -50 0 -16 2 -5 4 22 4 28 0 40 -2 28 -4z m61 -2 c4 -5 -3 -7 -14 -4 -23 6
-26 13 -6 13 8 0 17 -4 20 -9z m939 2 c-7 -2 -21 -2 -30 0 -10 3 -4 5 12 5 17
0 24 -2 18 -5z m7544 1 c-3 -3 -12 -4 -19 -1 -8 3 -5 6 6 6 11 1 17 -2 13 -5z
m-8186 -19 c53 -10 27 -16 -46 -10 -44 4 -113 8 -153 10 -41 2 -76 6 -80 10
-6 6 240 -3 279 -10z m7514 6 c98 -9 300 -23 333 -24 6 0 12 -4 12 -8 0 -5
-12 -6 -27 -4 -25 4 -110 9 -323 19 -99 5 -192 15 -198 21 -8 8 82 6 203 -4z
m792 3 c-3 -3 -12 -4 -19 -1 -8 3 -5 6 6 6 11 1 17 -2 13 -5z m-8592 -24 c4
-6 -6 -10 -22 -9 -25 0 -26 1 -8 9 11 5 21 9 22 9 1 1 5 -3 8 -9z m1110 -11
c5 -5 -29 -8 -90 -7 -55 0 -84 3 -65 6 33 5 34 5 10 13 -15 5 8 6 55 3 44 -3
84 -10 90 -15z m7798 14 c-7 -2 -19 -2 -25 0 -7 3 -2 5 12 5 14 0 19 -2 13 -5z
m-9186 -19 c-3 -3 -12 -4 -19 -1 -8 3 -5 6 6 6 11 1 17 -2 13 -5z m750 0 c-3
-3 -12 -4 -19 -1 -8 3 -5 6 6 6 11 1 17 -2 13 -5z m2120 0 c-3 -3 -12 -4 -19
-1 -8 3 -5 6 6 6 11 1 17 -2 13 -5z m43 -4 c0 -5 -7 -7 -15 -4 -8 4 -15 8 -15
10 0 2 7 4 15 4 8 0 15 -4 15 -10z m4060 -15 c118 -9 226 -18 240 -22 14 -3
68 -7 120 -8 103 -2 336 -27 308 -33 -10 -2 -18 -10 -18 -18 0 -8 -4 -14 -10
-14 -5 0 -10 4 -10 8 0 5 -66 14 -147 21 -82 7 -161 14 -178 16 -16 2 -91 9
-165 15 -74 6 -208 18 -298 25 -90 8 -170 15 -178 15 -8 0 -13 3 -11 8 6 9 68
6 347 -13z m1588 18 c-10 -2 -26 -2 -35 0 -10 3 -2 5 17 5 19 0 27 -2 18 -5z
m905 0 c-7 -2 -19 -2 -25 0 -7 3 -2 5 12 5 14 0 19 -2 13 -5z m-9918 -21 c-3
-3 -11 0 -18 7 -9 10 -8 11 6 5 10 -3 15 -9 12 -12z m1386 0 c-7 -2 -18 1 -23
6 -8 8 -4 9 13 5 13 -4 18 -8 10 -11z m2067 11 c-10 -2 -28 -2 -40 0 -13 2 -5
4 17 4 22 1 32 -1 23 -4z m65 0 c-7 -2 -21 -2 -30 0 -10 3 -4 5 12 5 17 0 24
-2 18 -5z m65 0 c-10 -2 -26 -2 -35 0 -10 3 -2 5 17 5 19 0 27 -2 18 -5z
m4932 -8 c91 -4 175 -8 187 -10 12 -2 95 -7 185 -11 90 -3 171 -11 182 -16 13
-7 21 -6 27 3 6 10 9 11 9 2 0 -7 7 -13 16 -13 8 0 12 5 9 10 -3 6 1 10 9 10
10 0 13 -6 9 -16 -5 -13 -19 -15 -87 -10 -140 11 -226 15 -386 22 -85 3 -207
10 -270 15 -63 5 -124 9 -135 10 l-20 0 20 9 c11 5 34 7 50 5 17 -2 104 -7
195 -10z m-8441 -4 c9 -6 5 -8 -13 -8 -14 0 -26 3 -26 8 0 11 21 11 39 0z
m461 5 c0 -3 -4 -8 -10 -11 -5 -3 -10 -1 -10 4 0 6 5 11 10 11 6 0 10 -2 10
-4z m50 0 c0 -3 -4 -8 -10 -11 -5 -3 -10 -1 -10 4 0 6 5 11 10 11 6 0 10 -2
10 -4z m60 -4 c0 -5 -7 -9 -15 -9 -8 0 -12 4 -9 9 3 4 9 8 15 8 5 0 9 -4 9 -8z
m833 1 c-7 -2 -21 -2 -30 0 -10 3 -4 5 12 5 17 0 24 -2 18 -5z m77 3 c0 -2 -7
-7 -16 -10 -8 -3 -12 -2 -9 4 6 10 25 14 25 6z m37 -12 c-3 -3 -12 -4 -19 -1
-8 3 -5 6 6 6 11 1 17 -2 13 -5z m66 -1 c-7 -2 -19 -2 -25 0 -7 3 -2 5 12 5
14 0 19 -2 13 -5z m80 0 c-7 -2 -19 -2 -25 0 -7 3 -2 5 12 5 14 0 19 -2 13 -5z
m7597 -13 c0 -5 -7 -7 -15 -4 -8 4 -15 8 -15 10 0 2 7 4 15 4 8 0 15 -4 15
-10z m-8943 -6 c-3 -3 -12 -4 -19 -1 -8 3 -5 6 6 6 11 1 17 -2 13 -5z m56 -1
c-7 -2 -21 -2 -30 0 -10 3 -4 5 12 5 17 0 24 -2 18 -5z m667 -12 c25 -6 11 -8
-50 -5 -47 3 -116 5 -155 5 -44 0 -63 3 -50 8 24 10 207 4 255 -8z m-357 2
c-13 -2 -33 -2 -45 0 -13 2 -3 4 22 4 25 0 35 -2 23 -4z m54 1 c-3 -3 -12 -4
-19 -1 -8 3 -5 6 6 6 11 1 17 -2 13 -5z m6070 -16 c-5 -15 -66 -12 -81 3 -6 5
9 9 38 9 34 0 46 -4 43 -12z m253 -8 c102 -5 286 -13 410 -16 124 -3 234 -8
245 -9 11 -2 46 -4 78 -4 36 -1 56 -5 52 -11 -3 -5 4 -11 17 -11 13 -1 37 -2
53 -4 17 -1 33 3 37 9 5 7 8 7 8 -1 0 -7 5 -13 11 -13 5 0 8 4 4 9 -3 6 4 8
17 5 38 -8 62 -12 313 -43 132 -16 258 -32 280 -35 22 -4 67 -9 99 -12 33 -3
66 -9 75 -15 12 -7 6 -8 -19 -5 -19 3 -71 8 -115 11 -44 4 -91 8 -105 10 -41
5 -577 64 -685 75 -101 10 -361 24 -645 35 -85 3 -186 9 -225 12 -38 3 -83 5
-98 4 -16 -1 -33 1 -38 4 -16 10 -1 23 23 19 13 -2 106 -8 208 -14z m2053 13
c-7 -2 -19 -2 -25 0 -7 3 -2 5 12 5 14 0 19 -2 13 -5z m101 -1 c2 -4 -11 -6
-30 -4 -19 2 -34 6 -34 8 0 8 59 4 64 -4z m64 -9 c-10 -2 -26 -2 -35 0 -10 3
-2 5 17 5 19 0 27 -2 18 -5z m-989 -19 c6 -6 -95 -3 -174 6 -52 6 -40 7 50 3
66 -2 122 -6 124 -9z m1119 9 c-15 -2 -42 -2 -60 0 -18 2 -6 4 27 4 33 0 48
-2 33 -4z m-743 -23 c124 -9 448 -30 468 -30 4 0 7 -4 7 -9 0 -5 -12 -8 -27
-6 -16 2 -104 6 -198 9 -93 4 -203 9 -243 13 -71 6 -104 7 -278 11 -55 1 -83
6 -87 15 -5 14 131 13 358 -3z m873 13 c-10 -2 -28 -2 -40 0 -13 2 -5 4 17 4
22 1 32 -1 23 -4z m92 -1 c0 -5 -7 -9 -15 -9 -8 0 -15 4 -15 9 0 4 7 8 15 8 8
0 15 -4 15 -8z m-1570 -11 c0 -5 -9 -7 -20 -4 -11 3 -20 7 -20 9 0 2 9 4 20 4
11 0 20 -4 20 -9z m1939 -7 c52 -4 106 -10 120 -15 18 -6 8 -7 -34 -4 -33 2
-145 10 -250 16 -104 6 -192 13 -195 16 -5 5 201 -2 359 -13z m-10072 0 c-3
-3 -12 -4 -19 -1 -8 3 -5 6 6 6 11 1 17 -2 13 -5z m40 0 c-3 -3 -12 -4 -19 -1
-8 3 -5 6 6 6 11 1 17 -2 13 -5z m7920 0 c-3 -3 -12 -4 -19 -1 -8 3 -5 6 6 6
11 1 17 -2 13 -5z m46 -1 c-7 -2 -19 -2 -25 0 -7 3 -2 5 12 5 14 0 19 -2 13
-5z m310 0 c-7 -2 -21 -2 -30 0 -10 3 -4 5 12 5 17 0 24 -2 18 -5z m50 0 c-7
-2 -19 -2 -25 0 -7 3 -2 5 12 5 14 0 19 -2 13 -5z m-5828 -32 c3 -6 -4 -9 -15
-8 -11 1 -20 5 -20 9 0 11 28 10 35 -1z m209 -6 c98 -2 386 -15 451 -20 22 -2
71 -4 108 -4 45 -1 66 -5 62 -11 -4 -7 -54 -9 -143 -5 -76 3 -195 7 -267 10
-71 3 -173 8 -225 12 -52 4 -98 6 -102 5 -4 -1 -5 5 -2 13 4 8 11 12 16 9 6
-4 51 -7 102 -9z m-1241 -2 c-7 -2 -19 -2 -25 0 -7 3 -2 5 12 5 14 0 19 -2 13
-5z m47 -1 c0 -5 -7 -9 -15 -9 -8 0 -15 4 -15 9 0 4 7 8 15 8 8 0 15 -4 15 -8z
m53 -7 c-6 -18 -34 -16 -41 3 -2 7 6 12 22 12 19 0 24 -4 19 -15z m232 0 c66
-3 167 -9 225 -15 58 -5 108 -9 113 -10 4 0 7 -3 7 -7 0 -7 -179 -2 -375 11
-38 2 -98 5 -132 5 -51 1 -61 4 -57 16 5 12 17 14 53 10 25 -2 100 -7 166 -10z
m765 5 c-19 -13 -30 -13 -30 0 0 6 10 10 23 10 18 0 19 -2 7 -10z m-2090 -14
c0 -9 -10 -13 -25 -12 -14 0 -25 4 -25 8 0 4 -21 9 -47 11 -37 3 -31 4 25 5
56 2 72 -1 72 -12z m53 7 c-7 -2 -21 -2 -30 0 -10 3 -4 5 12 5 17 0 24 -2 18
-5z m54 -9 c-3 -3 -12 -4 -19 -1 -8 3 -5 6 6 6 11 1 17 -2 13 -5z m50 0 c-3
-3 -12 -4 -19 -1 -8 3 -5 6 6 6 11 1 17 -2 13 -5z m151 -6 c19 2 31 -1 28 -7
-3 -5 0 -12 6 -14 7 -3 -12 -6 -44 -6 -51 -1 -56 1 -51 19 3 11 10 17 16 13 6
-4 26 -6 45 -5z m72 -19 c0 -6 -4 -7 -10 -4 -5 3 -10 11 -10 16 0 6 5 7 10 4
6 -3 10 -11 10 -16z m-155 1 c8 -13 -5 -13 -25 0 -13 8 -13 10 2 10 9 0 20 -4
23 -10z m414 -6 c2 -2 -4 -4 -15 -4 -10 -1 -44 -2 -76 -3 -31 -1 -51 1 -45 5
7 5 3 8 -10 8 -12 0 -25 -5 -28 -10 -4 -7 -11 -8 -18 -1 -7 5 -23 11 -37 14
-14 3 31 3 100 1 68 -3 127 -7 129 -10z m1116 6 c-25 -11 -62 -12 -68 -2 -3 4
16 8 41 9 34 1 42 -1 27 -7z m-1065 -11 c0 -6 -7 -9 -15 -5 -8 3 -15 0 -15 -6
0 -6 -3 -9 -6 -5 -9 9 5 27 22 27 8 0 14 -5 14 -11z m176 -4 c88 -3 152 -10
159 -16 7 -8 -29 -9 -130 -5 -77 3 -152 6 -167 6 -19 0 -28 5 -28 16 0 8 4 13
9 9 6 -3 76 -8 157 -10z m964 6 c0 -4 -11 -6 -25 -3 -14 2 -25 6 -25 8 0 2 11
4 25 4 14 0 25 -4 25 -9z m95 -1 c3 -6 -1 -7 -9 -4 -18 7 -21 14 -7 14 6 0 13
-4 16 -10z m5042 4 c-3 -3 -12 -4 -19 -1 -8 3 -5 6 6 6 11 1 17 -2 13 -5z
m-6544 -11 c-7 -2 -19 -2 -25 0 -7 3 -2 5 12 5 14 0 19 -2 13 -5z m6660 0
c-13 -2 -35 -2 -50 0 -16 2 -5 4 22 4 28 0 40 -2 28 -4z m287 -13 c91 -6 181
-12 200 -15 19 -2 94 -7 165 -10 72 -3 180 -8 240 -12 61 -3 118 -6 127 -5 24
1 34 -18 11 -19 -78 -6 -139 -3 -145 6 -5 6 -8 5 -8 -3 0 -7 -5 -10 -10 -7 -6
4 -81 7 -168 7 -86 0 -165 4 -174 9 -9 5 -18 5 -20 1 -2 -4 -28 -6 -58 -3 -40
3 -50 6 -35 12 15 6 8 8 -25 9 -73 2 -150 9 -235 20 -44 6 -90 12 -102 13 -13
1 -23 5 -23 10 0 5 21 6 48 3 26 -3 121 -10 212 -16z m-6241 -6 c2 -2 -17 -4
-42 -4 -26 0 -47 4 -47 10 0 9 79 3 89 -6z m7289 -1 c-16 -2 -40 -2 -55 0 -16
2 -3 4 27 4 30 0 43 -2 28 -4z m222 -10 c0 -5 -28 -7 -62 -5 -113 5 -125 9
-30 10 50 1 92 -1 92 -5z m103 -10 c-18 -2 -48 -2 -65 0 -18 2 -4 4 32 4 36 0
50 -2 33 -4z m90 0 c-7 -2 -19 -2 -25 0 -7 3 -2 5 12 5 14 0 19 -2 13 -5z
m493 -6 c4 -4 -2 -7 -14 -7 -12 0 -22 4 -22 9 0 10 26 9 36 -2z m39 3 c-3 -5
-10 -10 -16 -10 -5 0 -9 5 -9 10 0 6 7 10 16 10 8 0 12 -4 9 -10z m43 -1 c-2
-6 -8 -10 -13 -10 -5 0 -11 4 -13 10 -2 6 4 11 13 11 9 0 15 -5 13 -11z m142
-3 c0 -5 6 -4 13 1 6 5 26 7 42 3 l30 -6 -35 -6 c-61 -10 -173 -4 -177 9 -3 9
14 12 61 10 36 -1 66 -6 66 -11z m-9237 -3 c-7 -2 -21 -2 -30 0 -10 3 -4 5 12
5 17 0 24 -2 18 -5z m6680 0 c-18 -2 -48 -2 -65 0 -18 2 -4 4 32 4 36 0 50 -2
33 -4z m104 1 c-3 -3 -12 -4 -19 -1 -8 3 -5 6 6 6 11 1 17 -2 13 -5z m2006 -1
c-7 -2 -19 -2 -25 0 -7 3 -2 5 12 5 14 0 19 -2 13 -5z m124 1 c-3 -3 -12 -4
-19 -1 -8 3 -5 6 6 6 11 1 17 -2 13 -5z m541 -1 c-16 -2 -40 -2 -55 0 -16 2
-3 4 27 4 30 0 43 -2 28 -4z m-9355 -10 c-7 -2 -21 -2 -30 0 -10 3 -4 5 12 5
17 0 24 -2 18 -5z m6985 0 c-38 -2 -98 -2 -135 0 -38 2 -7 3 67 3 74 0 105 -1
68 -3z m-7320 -10 c-10 -2 -26 -2 -35 0 -10 3 -2 5 17 5 19 0 27 -2 18 -5z
m49 1 c-3 -3 -12 -4 -19 -1 -8 3 -5 6 6 6 11 1 17 -2 13 -5z m381 -1 c-10 -2
-28 -2 -40 0 -13 2 -5 4 17 4 22 1 32 -1 23 -4z m7692 -1 c0 -5 -14 -9 -30
-10 -17 0 -28 4 -25 9 8 11 55 12 55 1z m130 -2 c-20 -13 -33 -13 -25 0 3 6
14 10 23 10 15 0 15 -2 2 -10z m1770 -6 c0 -2 -7 -4 -15 -4 -8 0 -15 4 -15 10
0 5 7 7 15 4 8 -4 15 -8 15 -10z m-9887 -1 c-7 -2 -19 -2 -25 0 -7 3 -2 5 12
5 14 0 19 -2 13 -5z m165 -3 c28 0 52 -3 52 -8 0 -9 -168 3 -178 13 -4 4 11 5
33 2 22 -4 64 -7 93 -7z m295 3 c-13 -2 -33 -2 -45 0 -13 2 -3 4 22 4 25 0 35
-2 23 -4z m5893 -5 c5 -7 3 -8 -6 -3 -9 6 -11 4 -6 -4 5 -7 15 -10 23 -7 9 4
11 2 7 -6 -5 -8 -2 -9 10 -5 10 4 15 3 11 -3 -3 -6 1 -10 10 -10 9 0 13 5 9
11 -4 7 1 7 15 -1 17 -8 26 -8 36 0 9 7 15 8 19 1 4 -6 19 -10 34 -10 87 1
146 -7 150 -20 3 -8 0 -11 -7 -7 -13 8 -140 17 -229 16 -34 -1 -68 2 -75 7
-13 8 -24 11 -69 20 -15 3 -25 9 -23 14 3 4 11 6 18 3 8 -3 24 0 38 5 13 5 25
10 26 10 1 1 5 -4 9 -11z m3574 2 c0 -5 -7 -7 -15 -4 -8 4 -15 8 -15 10 0 2 7
4 15 4 8 0 15 -4 15 -10z m-9095 -17 c33 -3 62 -7 65 -10 6 -6 -196 6 -305 17
-66 7 -58 8 50 4 72 -3 157 -7 190 -11z m-527 0 c-10 -2 -26 -2 -35 0 -10 3
-2 5 17 5 19 0 27 -2 18 -5z m49 1 c-3 -3 -12 -4 -19 -1 -8 3 -5 6 6 6 11 1
17 -2 13 -5z m7066 -1 c-7 -2 -21 -2 -30 0 -10 3 -4 5 12 5 17 0 24 -2 18 -5z
m-6935 -10 c-21 -2 -57 -2 -80 0 -24 2 -7 4 37 4 44 0 63 -2 43 -4z m192 -7
c14 -2 -14 -4 -62 -5 -49 0 -88 2 -88 7 0 6 92 6 150 -2z m290 6 c0 -5 -13 -7
-30 -4 -16 2 -30 6 -30 8 0 2 14 4 30 4 17 0 30 -4 30 -8z m6108 1 c-10 -2
-26 -2 -35 0 -10 3 -2 5 17 5 19 0 27 -2 18 -5z m460 0 c-10 -2 -26 -2 -35 0
-10 3 -2 5 17 5 19 0 27 -2 18 -5z m65 0 c-7 -2 -19 -2 -25 0 -7 3 -2 5 12 5
14 0 19 -2 13 -5z m57 -3 c8 -5 11 -10 5 -10 -5 0 -17 5 -25 10 -8 5 -10 10
-5 10 6 0 17 -5 25 -10z m-6672 -19 c50 -4 92 -3 92 0 0 4 -12 10 -27 12 -16
3 -8 4 17 2 25 -2 99 -6 165 -9 66 -3 158 -10 205 -16 47 -5 111 -10 143 -10
36 0 56 -4 52 -10 -4 -6 4 -6 21 0 19 8 29 8 34 0 6 -10 31 -16 83 -19 9 0 17
-5 17 -10 0 -5 -24 -7 -52 -5 -29 2 -147 8 -263 14 -115 6 -309 20 -431 30
-121 11 -241 20 -267 21 -25 1 -52 6 -58 10 -12 7 89 4 269 -10z m5290 12
c-16 -2 -40 -2 -55 0 -16 2 -3 4 27 4 30 0 43 -2 28 -4z m1429 1 c-3 -3 -12
-4 -19 -1 -8 3 -5 6 6 6 11 1 17 -2 13 -5z m50 0 c-3 -3 -12 -4 -19 -1 -8 3
-5 6 6 6 11 1 17 -2 13 -5z m-1052 -24 c3 -5 -1 -10 -9 -10 -9 0 -16 5 -16 10
0 6 4 10 9 10 6 0 13 -4 16 -10z m88 4 c13 -13 -3 -20 -37 -16 -20 2 -36 8
-36 13 0 10 63 12 73 3z m117 -15 c3 -5 27 -7 53 -5 26 3 47 0 47 -5 0 -13 28
-11 32 3 3 9 52 9 214 -1 230 -15 360 -27 329 -31 -15 -2 -13 -4 10 -11 20 -5
3 -6 -50 -4 -44 3 -105 5 -135 6 l-55 2 50 7 50 7 -55 2 c-30 1 -64 4 -75 6
-51 9 -237 13 -229 5 5 -5 36 -11 69 -13 33 -2 -11 -2 -98 0 -96 3 -171 10
-190 18 -18 7 -38 11 -45 9 -8 -1 -8 0 -1 3 8 4 7 8 -2 14 -7 4 7 5 32 2 24
-3 46 -10 49 -14z m2597 15 c-3 -3 -12 -4 -19 -1 -8 3 -5 6 6 6 11 1 17 -2 13
-5z m-1400 -20 c-3 -3 -12 -4 -19 -1 -8 3 -5 6 6 6 11 1 17 -2 13 -5z m-5754
-11 c-7 -2 -19 -2 -25 0 -7 3 -2 5 12 5 14 0 19 -2 13 -5z m4167 -28 l65 -14
-75 5 c-41 3 -88 7 -105 9 -16 2 -64 6 -105 9 -41 4 -77 10 -80 13 -9 10 232
-7 300 -22z m-5915 -10 c149 -8 324 -17 390 -21 66 -3 123 -7 126 -10 3 -2 55
-4 114 -5 59 -1 102 -5 95 -9 -9 -6 -4 -10 16 -13 l29 -4 -32 -2 c-17 0 -34 3
-37 8 -8 12 -179 11 -194 -2 -10 -8 -12 -7 -10 3 2 10 -17 14 -79 16 -46 1
-83 -2 -83 -7 0 -5 -24 -9 -52 -8 -35 0 -46 3 -34 8 19 7 19 8 1 15 -13 5 -23
2 -31 -8 -11 -16 -30 -23 -21 -8 3 4 -38 7 -91 6 -204 -2 -742 41 -742 59 0
11 214 4 635 -18z m6678 8 c-7 -2 -19 -2 -25 0 -7 3 -2 5 12 5 14 0 19 -2 13
-5z m44 1 c-3 -3 -12 -4 -19 -1 -8 3 -5 6 6 6 11 1 17 -2 13 -5z m373 -4 c0
-5 5 -10 11 -10 5 0 8 4 5 8 -8 14 30 8 44 -6 11 -13 5 -14 -46 -9 -32 4 -66
7 -74 8 -8 0 -4 5 10 9 36 11 50 11 50 0z m175 -23 c27 -4 27 -4 -7 -6 -30 -1
-38 3 -38 17 0 11 3 13 8 5 4 -6 21 -13 37 -16z m-1177 6 c-15 -2 -42 -2 -60
0 -18 2 -6 4 27 4 33 0 48 -2 33 -4z m1102 3 c0 -3 -4 -8 -10 -11 -5 -3 -10
-1 -10 4 0 6 5 11 10 11 6 0 10 -2 10 -4z m-997 -13 c-13 -2 -35 -2 -50 0 -16
2 -5 4 22 4 28 0 40 -2 28 -4z m70 -10 c-7 -2 -19 -2 -25 0 -7 3 -2 5 12 5 14
0 19 -2 13 -5z m61 -15 c-4 -6 2 -5 15 1 23 13 74 10 301 -15 198 -22 230 -34
75 -27 -71 3 -143 6 -160 8 -16 2 -41 4 -55 4 -20 1 -22 3 -10 11 10 7 -18 8
-90 4 -93 -6 -104 -5 -93 8 7 8 9 19 5 23 -4 5 -1 5 6 1 7 -4 9 -12 6 -18z
m1013 16 c-3 -3 -12 -4 -19 -1 -8 3 -5 6 6 6 11 1 17 -2 13 -5z m77 -3 c3 -4
-6 -6 -19 -3 -14 2 -25 6 -25 8 0 8 39 4 44 -5z m-6621 -8 c-7 -2 -19 -2 -25
0 -7 3 -2 5 12 5 14 0 19 -2 13 -5z m677 -3 c0 -5 -38 -10 -85 -12 -47 -2 -85
0 -85 4 0 9 24 13 102 15 38 1 68 -2 68 -7z m6008 3 c-10 -2 -26 -2 -35 0 -10
3 -2 5 17 5 19 0 27 -2 18 -5z m-7038 -19 c0 -2 -13 -4 -30 -4 -16 0 -30 4
-30 8 0 5 14 7 30 4 17 -2 30 -6 30 -8z m563 9 c-23 -2 -64 -2 -90 0 -26 2 -7
3 42 3 50 0 71 -1 48 -3z m240 0 c-7 -2 -19 -2 -25 0 -7 3 -2 5 12 5 14 0 19
-2 13 -5z m6509 -13 c42 -10 -119 -1 -182 11 -29 5 -12 6 52 2 53 -3 112 -9
130 -13z m-1289 -7 c-7 -2 -19 -2 -25 0 -7 3 -2 5 12 5 14 0 19 -2 13 -5z
m1362 -3 c3 -6 -1 -7 -9 -4 -18 7 -21 14 -7 14 6 0 13 -4 16 -10z m-7077 -7
c-10 -2 -28 -2 -40 0 -13 2 -5 4 17 4 22 1 32 -1 23 -4z m422 -9 c0 -2 -11 -3
-24 -2 -14 1 -23 5 -20 9 4 7 44 0 44 -7z m93 9 c-7 -2 -21 -2 -30 0 -10 3 -4
5 12 5 17 0 24 -2 18 -5z m195 0 c-10 -2 -28 -2 -40 0 -13 2 -5 4 17 4 22 1
32 -1 23 -4z m57 -3 c-3 -5 -14 -10 -23 -10 -15 0 -15 2 -2 10 20 13 33 13 25
0z m6352 4 c-3 -3 -12 -4 -19 -1 -8 3 -5 6 6 6 11 1 17 -2 13 -5z m-8612 -14
c3 -5 2 -10 -4 -10 -5 0 -13 5 -16 10 -3 6 -2 10 4 10 5 0 13 -4 16 -10z
m2333 3 c-10 -2 -28 -2 -40 0 -13 2 -5 4 17 4 22 1 32 -1 23 -4z m80 0 c-10
-2 -28 -2 -40 0 -13 2 -5 4 17 4 22 1 32 -1 23 -4z m-2253 -12 c3 -5 1 -12 -5
-16 -5 -3 -10 -1 -10 5 0 6 -4 8 -10 5 -5 -3 -10 -1 -10 4 0 13 27 14 35 2z
m55 -5 c0 -11 -19 -15 -25 -6 -3 5 1 10 9 10 9 0 16 -2 16 -4z m74 -5 c7 -10
-17 -21 -46 -21 -17 0 -18 3 -8 15 14 17 46 20 54 6z m91 -8 c-11 -2 -27 -7
-35 -10 -29 -11 -37 -11 -37 3 0 10 13 14 46 13 25 -1 37 -3 26 -6z m7550 -33
l50 -6 -35 -8 c-35 -7 -288 9 -299 20 -7 6 216 2 284 -6z m82 -6 c-3 -3 -12
-4 -19 -1 -8 3 -5 6 6 6 11 1 17 -2 13 -5z m-7359 -11 c-10 -2 -26 -2 -35 0
-10 3 -2 5 17 5 19 0 27 -2 18 -5z m6057 -8 c6 -2 -25 -4 -67 -4 -43 -1 -78 3
-78 7 0 7 123 5 145 -3z m1453 8 c-10 -2 -26 -2 -35 0 -10 3 -2 5 17 5 19 0
27 -2 18 -5z m-7795 -10 c-7 -2 -19 -2 -25 0 -7 3 -2 5 12 5 14 0 19 -2 13 -5z
m375 0 c-10 -2 -26 -2 -35 0 -10 3 -2 5 17 5 19 0 27 -2 18 -5z m47 -3 c3 -5
2 -10 -4 -10 -5 0 -13 5 -16 10 -3 6 -2 10 4 10 5 0 13 -4 16 -10z m7218 3
c-7 -2 -19 -2 -25 0 -7 3 -2 5 12 5 14 0 19 -2 13 -5z m-7155 -10 c-10 -2 -26
-2 -35 0 -10 3 -2 5 17 5 19 0 27 -2 18 -5z m6035 0 c3 -5 -18 -7 -46 -5 -86
5 -96 9 -25 11 37 0 69 -2 71 -6z m1560 0 c-7 -2 -21 -2 -30 0 -10 3 -4 5 12
5 17 0 24 -2 18 -5z m-7536 -9 c-3 -3 -12 -4 -19 -1 -8 3 -5 6 6 6 11 1 17 -2
13 -5z m203 -14 c47 -5 186 -21 310 -35 312 -35 302 -33 309 -41 3 -3 -61 -3
-144 0 -239 10 -477 34 -369 37 l29 1 -27 8 c-15 4 -84 14 -153 21 -69 7 -125
16 -125 21 0 5 19 6 43 3 23 -3 80 -10 127 -15z m5878 13 c-15 -2 -42 -2 -60
0 -18 2 -6 4 27 4 33 0 48 -2 33 -4z m1287 -3 c3 -5 1 -10 -4 -10 -6 0 -11 5
-11 10 0 6 2 10 4 10 3 0 8 -4 11 -10z m268 3 c-7 -2 -19 -2 -25 0 -7 3 -2 5
12 5 14 0 19 -2 13 -5z m-1415 -10 c-21 -2 -55 -2 -75 0 -21 2 -4 4 37 4 41 0
58 -2 38 -4z m1375 -9 c48 -3 90 -10 93 -15 2 -4 -12 -7 -33 -4 -21 2 -74 6
-118 10 -44 4 -98 11 -120 15 -43 10 -25 9 178 -6z m125 9 c-10 -2 -28 -2 -40
0 -13 2 -5 4 17 4 22 1 32 -1 23 -4z m-7855 -10 c-7 -2 -19 -2 -25 0 -7 3 -2
5 12 5 14 0 19 -2 13 -5z m6207 -3 l75 -7 -65 0 c-36 0 -99 3 -140 7 l-75 7
65 0 c36 0 99 -3 140 -7z m330 2 c0 -4 -17 -6 -37 -4 -65 6 -70 10 -15 11 28
0 52 -3 52 -7z m1413 1 c-7 -2 -19 -2 -25 0 -7 3 -2 5 12 5 14 0 19 -2 13 -5z
m-8966 -9 c-3 -3 -12 -4 -19 -1 -8 3 -5 6 6 6 11 1 17 -2 13 -5z m1153 -2 c0
-4 -16 -6 -35 -4 -19 2 -35 6 -35 8 0 2 16 4 35 4 19 0 35 -4 35 -8z m6715
-22 c71 -10 159 -22 195 -25 36 -4 67 -9 70 -12 5 -5 -231 4 -325 12 -126 11
-166 15 -255 21 -52 3 -131 9 -175 14 l-80 7 65 1 c36 0 111 -3 167 -7 95 -6
126 1 58 13 -84 14 168 -7 280 -24z m-6629 11 c-3 -5 -15 -7 -26 -4 -28 7 -25
13 6 13 14 0 23 -4 20 -9z m7667 2 c-7 -2 -21 -2 -30 0 -10 3 -4 5 12 5 17 0
24 -2 18 -5z m-7483 -15 c0 -8 -120 -2 -129 7 -3 3 25 5 62 3 37 -1 67 -6 67
-10z m7837 -4 c-3 -3 -12 -4 -19 -1 -8 3 -5 6 6 6 11 1 17 -2 13 -5z m377 -15
c3 -3 -9 -6 -27 -7 -22 -1 -28 1 -18 7 14 9 36 9 45 0z m179 -6 c-7 -2 -19 -2
-25 0 -7 3 -2 5 12 5 14 0 19 -2 13 -5z m-8153 -327 c0 -3 -4 -8 -10 -11 -5
-3 -10 -1 -10 4 0 6 5 11 10 11 6 0 10 -2 10 -4z m58 -3 c-10 -2 -26 -2 -35 0
-10 3 -2 5 17 5 19 0 27 -2 18 -5z m62 -5 c0 -4 -5 -8 -11 -8 -5 0 -7 -6 -3
-12 4 -7 3 -9 -1 -5 -15 13 -14 34 1 34 8 0 14 -4 14 -9z m705 2 c-3 -5 -12
-10 -18 -10 -7 0 -6 4 3 10 19 12 23 12 15 0z m99 2 c3 -5 -1 -9 -9 -9 -8 0
-15 4 -15 9 0 4 4 8 9 8 6 0 12 -4 15 -8z m76 -1 c0 -5 -9 -11 -20 -14 -11 -3
-20 -1 -20 5 0 5 -4 6 -10 3 -5 -3 -10 -1 -10 4 0 6 14 11 30 11 17 0 30 -4
30 -9z m-836 -10 c17 -6 17 -8 3 -14 -8 -3 -21 1 -27 9 -13 15 -6 17 24 5z
m117 0 c-7 -5 -17 -14 -21 -21 -5 -8 -9 -6 -12 7 -4 15 1 19 21 21 18 1 22 -1
12 -7z m136 -16 c24 -4 46 -12 50 -17 4 -8 -2 -9 -18 -3 -13 4 -50 7 -81 6
-31 0 -59 3 -62 7 -3 5 10 7 29 6 28 -3 33 0 29 14 -4 11 -3 13 3 6 4 -6 27
-15 50 -19z m4859 18 c-11 -11 -48 -14 -41 -3 3 5 16 10 27 10 12 0 18 -3 14
-7z m34 -3 c0 -5 -4 -10 -10 -10 -5 0 -10 5 -10 10 0 6 5 10 10 10 6 0 10 -4
10 -10z m80 -22 c0 -5 -4 -8 -10 -8 -5 0 -10 10 -10 23 0 18 2 19 10 7 5 -8
10 -18 10 -22z m-5350 12 c0 -5 -2 -10 -4 -10 -3 0 -8 5 -11 10 -3 6 -1 10 4
10 6 0 11 -4 11 -10z m457 4 c-3 -3 -12 -4 -19 -1 -8 3 -5 6 6 6 11 1 17 -2
13 -5z m230 0 c-3 -3 -12 -4 -19 -1 -8 3 -5 6 6 6 11 1 17 -2 13 -5z m-114
-17 c3 -8 -1 -14 -8 -14 -7 0 -11 6 -8 14 3 7 6 13 8 13 2 0 5 -6 8 -13z m47
4 c0 -6 -4 -13 -10 -16 -5 -3 -10 1 -10 9 0 9 5 16 10 16 6 0 10 -4 10 -9z
m133 1 c4 8 6 7 6 -4 1 -10 -6 -18 -14 -18 -8 0 -15 5 -15 11 0 5 -5 7 -12 3
-7 -4 -8 -3 -4 5 6 9 11 9 21 1 10 -8 14 -7 18 2z m4702 -10 c-3 -3 -11 0 -18
7 -9 10 -8 11 6 5 10 -3 15 -9 12 -12z m97 6 c-9 -9 -15 -9 -24 0 -9 9 -7 12
12 12 19 0 21 -3 12 -12z m-5055 -4 c-3 -3 -12 -4 -19 -1 -8 3 -5 6 6 6 11 1
17 -2 13 -5z m38 -4 c3 -6 -1 -7 -9 -4 -18 7 -21 14 -7 14 6 0 13 -4 16 -10z
m165 -2 c0 -5 -11 -8 -25 -8 -14 0 -25 4 -25 9 0 5 11 8 25 7 14 0 25 -4 25
-8z m6097 -14 c-3 -3 -12 -4 -19 -1 -8 3 -5 6 6 6 11 1 17 -2 13 -5z m163 2
c0 -2 -7 -6 -15 -10 -8 -3 -15 -1 -15 4 0 6 7 10 15 10 8 0 15 -2 15 -4z m50
-6 c0 -5 -5 -10 -11 -10 -5 0 -7 5 -4 10 3 6 8 10 11 10 2 0 4 -4 4 -10z
m-1287 -7 c-7 -2 -19 -2 -25 0 -7 3 -2 5 12 5 14 0 19 -2 13 -5z m-6065 -91
c8 -6 2 -9 -17 -9 -17 0 -28 4 -25 9 7 10 25 10 42 0z m298 -39 c-6 -6 -36 9
-36 18 0 5 9 4 20 -3 10 -7 18 -14 16 -15z m44 -3 c0 -5 -2 -10 -4 -10 -3 0
-8 5 -11 10 -3 6 -1 10 4 10 6 0 11 -4 11 -10z m140 -5 c-7 -8 -20 -15 -29
-15 -11 1 -8 5 9 15 32 18 35 18 20 0z m115 -15 c-3 -5 -10 -10 -16 -10 -5 0
-9 5 -9 10 0 6 7 10 16 10 8 0 12 -4 9 -10z m424 -41 c37 -13 38 -18 10 -53
-13 -16 -30 -26 -47 -26 -15 0 -72 -16 -127 -34 -55 -19 -101 -33 -103 -31 -2
2 4 15 13 29 11 16 15 40 13 68 l-3 43 45 6 c77 10 166 9 199 -2z m4628 -165
c-3 -3 -12 -4 -19 -1 -8 3 -5 6 6 6 11 1 17 -2 13 -5z m56 -1 c-7 -2 -21 -2
-30 0 -10 3 -4 5 12 5 17 0 24 -2 18 -5z m-4760 -27 c-21 -18 -45 -25 -103
-30 -41 -4 -91 -9 -110 -11 -19 -3 21 11 90 29 152 41 159 42 123 12z m4820
17 c-7 -2 -19 -2 -25 0 -7 3 -2 5 12 5 14 0 19 -2 13 -5z m75 0 c-10 -2 -26
-2 -35 0 -10 3 -2 5 17 5 19 0 27 -2 18 -5z m75 -10 c-7 -2 -19 -2 -25 0 -7 3
-2 5 12 5 14 0 19 -2 13 -5z m60 0 c-7 -2 -19 -2 -25 0 -7 3 -2 5 12 5 14 0
19 -2 13 -5z m282 -13 c4 -6 -12 -9 -42 -9 -47 2 -47 2 -13 9 19 4 38 8 42 9
4 0 10 -3 13 -9z m48 -7 c-7 -2 -19 -2 -25 0 -7 3 -2 5 12 5 14 0 19 -2 13 -5z
m-5583 -158 c0 -21 -57 -101 -66 -92 -2 1 4 23 12 47 9 25 14 62 12 84 l-4 38
23 -27 c13 -14 23 -37 23 -50z m75 -138 c-7 -25 -43 -42 -185 -84 -8 -3 30 22
85 55 55 33 101 59 103 57 2 -1 0 -14 -3 -28z m-122 -325 c-11 -30 -28 -46
-71 -71 l-57 -32 70 70 c38 39 70 71 71 71 2 0 -4 -17 -13 -38z m3991 -107
c188 -28 343 -82 463 -162 62 -41 173 -149 173 -168 0 -20 -108 -194 -182
-293 -289 -384 -711 -664 -1178 -783 -63 -16 -120 -29 -126 -29 -7 0 -15 12
-19 28 -28 115 -113 267 -168 301 -38 23 -111 29 -124 9 -4 -7 -8 -76 -9 -153
-1 -77 -5 -159 -9 -182 l-7 -43 -91 0 c-51 0 -97 4 -103 8 -6 4 -14 41 -17 82
-9 107 -31 182 -82 287 -36 73 -64 112 -129 180 l-84 88 73 28 c136 51 191
109 249 260 39 101 97 290 116 379 l13 57 76 25 c94 31 222 62 321 77 204 30
652 32 844 4z m-4100 -953 c4 -33 2 -91 -4 -130 -7 -40 -17 -163 -24 -274
l-12 -203 -8 129 c-14 212 7 536 34 536 4 0 10 -26 14 -58z m2393 -51 c95 -97
161 -229 178 -357 l6 -49 -34 77 c-59 129 -139 232 -226 288 -22 15 -23 18
-10 58 6 23 16 42 20 42 4 0 33 -27 66 -59z m-2257 -726 c5 -71 11 -155 14
-185 l6 -55 -21 55 c-38 101 -59 227 -58 355 l0 120 25 -80 c18 -56 28 -119
34 -210z m4577 -895 c56 -27 91 -52 112 -79 17 -21 31 -42 31 -45 0 -3 -21 9
-47 28 -108 77 -229 124 -323 126 -36 1 -41 3 -25 11 11 5 54 6 95 3 60 -4 91
-13 157 -44z m128 16 c37 -16 55 -42 55 -80 l0 -25 -25 25 c-14 14 -52 38 -86
54 -43 20 -55 30 -42 33 35 9 64 7 98 -7z m-3143 -298 c37 -12 68 -25 68 -29
0 -4 23 -36 51 -71 62 -77 172 -168 286 -236 48 -29 84 -52 80 -52 -17 0 -161
57 -229 91 -108 52 -154 86 -228 167 -60 64 -120 152 -104 152 4 0 38 -10 76
-22z m3149 -29 c33 -11 99 -65 99 -80 0 -4 -21 4 -47 19 -47 27 -50 27 -240
27 -105 0 -190 1 -188 3 1 2 43 12 91 22 103 21 236 25 285 9z m-521 -124 c51
-63 102 -117 113 -120 12 -3 74 -9 137 -13 l115 -8 -98 -13 c-152 -20 -154
-19 -292 119 -114 114 -118 120 -100 134 11 9 23 16 27 16 3 0 48 -52 98 -115z
m-2350 48 c18 -24 73 -78 124 -120 117 -97 119 -99 66 -73 -122 61 -231 148
-272 217 l-17 29 34 -4 c26 -3 40 -14 65 -49z m2374 -791 c6 -11 34 -12 130
-7 95 5 117 3 102 -6 -34 -21 -119 -39 -187 -39 -63 0 -68 -2 -125 -46 -70
-54 -289 -252 -356 -321 -40 -41 -50 -60 -72 -138 -14 -49 -37 -148 -52 -220
-40 -199 -46 -179 -14 47 19 132 41 241 59 283 5 11 115 117 245 235 l236 215
1 100 2 100 11 -95 c6 -52 15 -101 20 -108z m2314 -778 c-4 -3 -39 -12 -80
-21 -137 -28 -125 -14 -188 -226 -49 -166 -58 -187 -83 -202 -16 -9 -30 -15
-31 -13 -2 1 27 102 64 223 l67 220 39 12 c39 11 222 18 212 7z m-5578 -709
c3567 -76 5939 -125 6013 -125 l77 0 0 -240 0 -240 -22 0 c-13 0 -210 11 -438
25 -228 14 -433 25 -455 24 -26 0 76 -32 300 -93 187 -51 347 -96 355 -99 8
-4 -280 -5 -640 -3 -360 3 -644 1 -630 -3 14 -4 177 -39 364 -77 286 -58 332
-70 300 -76 -22 -4 -187 -19 -369 -34 -181 -14 -331 -27 -332 -28 -1 -1 235
-58 525 -127 l527 -124 -120 -6 c-66 -4 -322 -7 -570 -9 -247 -1 -436 -5 -418
-10 18 -4 246 -40 507 -81 262 -41 476 -76 476 -79 0 -3 -143 -30 -317 -59
-175 -30 -328 -57 -340 -60 -16 -4 66 -34 261 -96 199 -63 274 -91 252 -93
-34 -3 -1868 97 -1873 102 -2 2 159 30 358 62 261 42 354 61 333 66 -16 4
-330 32 -699 63 -368 31 -683 59 -699 63 -22 5 92 34 482 122 281 63 509 116
507 118 -1 2 -344 26 -762 53 -417 27 -762 50 -766 52 -5 1 222 33 505 71 581
77 619 83 508 85 -156 3 -2091 79 -2095 83 -2 2 218 30 488 62 271 33 501 62
511 66 46 16 -388 90 -1034 176 -271 36 -308 42 -255 43 64 2 1073 71 1125 78
l55 6 -55 13 c-212 50 -606 101 -1320 169 -490 46 -1486 118 -2232 162 -164 9
-298 21 -298 25 0 12 144 10 1910 -27z"/>
<path d="M5040 10620 c-8 -5 -12 -11 -10 -13 8 -8 170 -13 170 -6 0 4 10 5 23
2 15 -3 18 -2 9 5 -7 5 -37 10 -65 11 -29 1 -66 3 -83 6 -16 2 -37 0 -44 -5z"/>
<path d="M1883 10629 c10 -6 23 -6 33 -1 12 7 8 9 -18 10 -26 1 -30 -1 -15 -9z"/>
<path d="M6188 10603 c6 -2 18 -2 25 0 6 3 1 5 -13 5 -14 0 -19 -2 -12 -5z"/>
<path d="M6237 10599 c8 -8 16 -8 30 0 16 9 14 10 -11 11 -22 0 -27 -3 -19
-11z"/>
<path d="M6302 10599 c20 -11 426 -21 432 -10 3 4 -41 11 -98 15 -130 9 -353
5 -334 -5z"/>
<path d="M2580 10580 c-12 -8 -10 -10 8 -10 13 0 20 4 17 10 -7 12 -6 12 -25
0z"/>
<path d="M6099 10574 c9 -18 18 -20 66 -18 31 1 60 5 63 9 4 3 -20 5 -53 3
-44 -2 -64 1 -73 12 -11 13 -12 12 -3 -6z"/>
<path d="M5578 10573 c6 -2 18 -2 25 0 6 3 1 5 -13 5 -14 0 -19 -2 -12 -5z"/>
<path d="M5828 10573 c7 -3 16 -2 19 1 4 3 -2 6 -13 5 -11 0 -14 -3 -6 -6z"/>
<path d="M7785 10569 c-4 -6 -5 -12 -2 -15 2 -3 7 2 10 11 7 17 1 20 -8 4z"/>
<path d="M3298 10563 c7 -3 16 -2 19 1 4 3 -2 6 -13 5 -11 0 -14 -3 -6 -6z"/>
<path d="M3368 10563 c23 -2 40 -8 38 -12 -3 -4 8 -8 25 -9 19 0 29 4 26 11
-2 7 -28 12 -68 13 -38 1 -46 -1 -21 -3z"/>
<path d="M3504 10559 c-2 -4 12 -7 31 -6 19 1 35 5 35 9 0 10 -60 7 -66 -3z"/>
<path d="M5998 10563 c12 -2 32 -2 45 0 12 2 2 4 -23 4 -25 0 -35 -2 -22 -4z"/>
<path d="M6267 10563 c18 -2 50 -2 70 0 21 2 7 4 -32 4 -38 0 -55 -2 -38 -4z"/>
<path d="M6416 10562 c-3 -5 1 -9 9 -9 8 0 15 4 15 9 0 4 -4 8 -9 8 -6 0 -12
-4 -15 -8z"/>
<path d="M7300 10556 c0 -2 9 -6 20 -9 11 -3 20 -1 20 4 0 5 -9 9 -20 9 -11 0
-20 -2 -20 -4z"/>
<path d="M7356 10552 c-3 -5 1 -9 9 -9 8 0 12 4 9 9 -3 4 -7 8 -9 8 -2 0 -6
-4 -9 -8z"/>
<path d="M6260 10537 c8 -8 67 -15 320 -37 254 -22 637 -36 540 -20 -125 21
-872 70 -860 57z"/>
<path d="M4040 10470 c0 -5 7 -7 15 -4 8 4 15 8 15 10 0 2 -7 4 -15 4 -8 0
-15 -4 -15 -10z"/>
<path d="M4088 10473 c7 -3 16 -2 19 1 4 3 -2 6 -13 5 -11 0 -14 -3 -6 -6z"/>
<path d="M2753 10463 c15 -2 37 -2 50 0 12 2 0 4 -28 4 -27 0 -38 -2 -22 -4z"/>
<path d="M4388 10463 c6 -2 18 -2 25 0 6 3 1 5 -13 5 -14 0 -19 -2 -12 -5z"/>
<path d="M4495 10460 c50 -14 386 -28 450 -20 l60 7 -50 2 c-27 1 -72 4 -100
6 -100 9 -389 12 -360 5z"/>
<path d="M3310 10440 l-45 -6 45 -7 c25 -3 74 -9 110 -12 36 -3 137 -12 225
-20 88 -8 255 -21 370 -29 116 -8 215 -15 220 -16 6 -1 51 -1 100 0 110 3 75
14 -76 25 -55 4 -99 10 -99 14 0 4 15 6 33 4 17 -2 104 -10 192 -18 l160 -15
90 24 c50 13 101 26 115 28 29 4 -522 18 -719 18 -96 0 -132 -3 -121 -11 11
-7 -1 -8 -40 -5 -30 3 -134 8 -230 11 -96 4 -200 10 -230 13 -30 4 -75 5 -100
2z m837 -46 c-3 -3 -12 -4 -19 -1 -8 3 -5 6 6 6 11 1 17 -2 13 -5z"/>
<path d="M7675 10440 c-3 -5 -1 -10 4 -10 6 0 11 5 11 10 0 6 -2 10 -4 10 -3
0 -8 -4 -11 -10z"/>
<path d="M3330 10389 c0 -5 5 -7 10 -4 6 3 10 8 10 11 0 2 -4 4 -10 4 -5 0
-10 -5 -10 -11z"/>
<path d="M3458 10383 c12 -2 30 -2 40 0 9 3 -1 5 -23 4 -22 0 -30 -2 -17 -4z"/>
<path d="M5766 10369 c5 -8 80 -29 123 -34 63 -7 446 -14 421 -7 -15 4 21 9
90 13 99 4 88 5 -80 6 -107 1 -277 8 -377 15 -99 7 -179 10 -177 7z"/>
<path d="M3198 10163 c7 -3 16 -2 19 1 4 3 -2 6 -13 5 -11 0 -14 -3 -6 -6z"/>
<path d="M6450 10159 c0 -5 9 -9 20 -9 11 0 20 2 20 4 0 2 -9 6 -20 9 -11 3
-20 1 -20 -4z"/>
<path d="M6648 10013 c6 -2 18 -2 25 0 6 3 1 5 -13 5 -14 0 -19 -2 -12 -5z"/>
<path d="M2409 9861 c10 -7 5 -11 -18 -16 -36 -8 -42 -23 -8 -22 12 0 65 -2
117 -6 214 -15 443 -23 815 -27 226 -3 277 -8 268 -24 -3 -6 6 0 21 14 l28 25
-84 7 c-45 4 -162 10 -258 12 -96 3 -267 8 -380 12 -113 3 -227 5 -253 4 -38
-1 -47 2 -41 12 6 10 4 10 -9 -1 -13 -11 -20 -11 -32 -1 -8 6 -19 9 -25 5 -5
-3 -10 -1 -10 5 0 6 -5 8 -10 5 -6 -4 -8 -9 -6 -13 2 -4 -10 -6 -27 -5 -60 3
-63 4 -42 13 16 7 11 9 -20 9 -27 1 -35 -2 -26 -8z"/>
<path d="M3383 9773 c15 -2 37 -2 50 0 12 2 0 4 -28 4 -27 0 -38 -2 -22 -4z"/>
<path d="M3493 9763 c15 -2 39 -2 55 0 15 2 2 4 -28 4 -30 0 -43 -2 -27 -4z"/>
<path d="M5000 9637 c-77 -32 -137 -75 -203 -146 -78 -85 -112 -138 -126 -196
-41 -179 -53 -474 -26 -642 15 -93 56 -236 82 -286 11 -22 12 -35 3 -61 -23
-71 -107 -116 -217 -116 -29 0 -53 -4 -53 -9 0 -15 82 -43 141 -48 72 -7 134
19 179 76 32 39 36 41 89 41 74 0 150 21 236 65 70 35 199 125 191 132 -2 2
-48 -18 -102 -45 -125 -62 -249 -102 -320 -102 -43 0 -54 3 -54 16 0 14 11 15
83 9 90 -8 91 -5 12 44 -27 17 -45 31 -40 31 62 2 200 25 262 45 79 25 186 83
257 139 43 35 139 146 132 153 -3 3 -18 -3 -35 -13 -39 -23 -51 -13 -90 81
-29 69 -101 338 -101 376 0 10 -3 20 -7 22 -5 3 -8 -86 -8 -198 0 -196 6 -240
20 -155 4 22 10 42 15 45 8 5 25 -207 19 -240 -3 -13 -28 -27 -84 -48 -65 -24
-97 -30 -171 -31 -84 -1 -94 1 -140 29 -33 21 -60 48 -81 85 -44 72 -41 80 8
35 38 -34 119 -79 127 -70 2 2 -26 41 -62 86 -61 78 -124 202 -115 227 2 6 38
-12 79 -39 41 -27 78 -49 83 -49 17 0 -22 117 -78 238 l-44 93 20 47 20 47 32
-60 c65 -121 248 -358 264 -341 3 3 -52 115 -121 250 -69 135 -126 248 -126
251 0 12 54 4 88 -14 75 -39 142 -129 194 -259 16 -42 34 -81 39 -87 14 -14 0
94 -23 185 -36 144 -105 222 -226 256 l-61 17 17 29 c9 15 45 49 79 74 35 26
63 48 63 50 0 12 -73 0 -120 -19z"/>
<path d="M4550 9404 c-68 -56 -167 -114 -193 -114 -29 0 -29 -20 0 -44 16 -14
41 -47 57 -75 l28 -52 -21 -87 c-53 -226 -68 -488 -40 -673 l13 -84 8 145 c20
369 81 680 184 942 20 49 34 91 32 92 -1 2 -32 -21 -68 -50z"/>
<path d="M3178 9383 c6 -2 18 -2 25 0 6 3 1 5 -13 5 -14 0 -19 -2 -12 -5z"/>
<path d="M4122 9271 c-9 -5 1 -10 29 -14 51 -7 88 -32 112 -78 15 -28 18 -50
14 -126 -3 -51 -3 -93 -1 -93 3 0 18 28 34 63 51 107 39 207 -31 243 -30 15
-136 19 -157 5z"/>
<path d="M4082 9204 c-76 -53 -65 -199 18 -234 120 -50 215 124 119 220 -24
24 -39 30 -73 30 -23 0 -52 -7 -64 -16z m91 -58 c8 -20 -20 -43 -35 -28 -14
14 -3 42 16 42 7 0 16 -6 19 -14z m-9 -86 c31 -4 36 -7 25 -16 -24 -20 -57
-26 -79 -14 -25 13 -43 55 -34 82 5 16 8 15 28 -14 17 -25 31 -34 60 -38z"/>
<path d="M3945 9185 c-180 -48 -308 -128 -415 -261 -56 -71 -126 -181 -118
-189 2 -2 24 12 48 32 64 51 179 127 185 122 4 -5 -13 -51 -76 -211 -10 -27
-15 -48 -10 -48 6 0 12 8 16 19 9 30 163 261 223 334 30 37 74 82 98 99 49 35
86 112 49 103z"/>
<path d="M3987 9123 c-4 -7 -8 -33 -9 -57 -1 -69 37 -115 107 -132 l30 -7 -36
34 c-42 39 -70 89 -79 139 -3 22 -8 30 -13 23z"/>
<path d="M3840 8924 c-17 -27 -39 -71 -50 -100 -20 -54 -55 -223 -47 -230 2
-3 14 24 27 58 30 82 73 168 103 204 19 23 23 37 19 67 -2 20 -8 40 -13 43 -5
3 -22 -16 -39 -42z"/>
<path d="M3971 8943 c81 -107 170 -139 264 -93 39 19 136 109 105 97 -149 -56
-242 -60 -326 -13 -55 31 -61 32 -43 9z"/>
<path d="M3193 8811 c-165 -136 -353 -413 -501 -736 -65 -142 -164 -386 -159
-392 2 -2 37 54 77 124 134 232 281 457 324 492 10 8 8 -8 -6 -66 -29 -114
-29 -276 -1 -368 12 -38 28 -79 36 -89 12 -17 15 -5 21 95 15 251 71 535 142
713 42 104 88 198 116 239 33 46 14 41 -49 -12z"/>
<path d="M3960 8851 c0 -19 74 -91 112 -110 30 -15 37 -21 22 -21 -20 0 -22
-7 -29 -84 -3 -46 -4 -121 0 -167 14 -198 38 -415 45 -422 4 -4 10 83 13 195
7 211 21 314 56 394 12 25 19 50 16 54 -3 4 -22 11 -42 15 l-38 8 57 11 c58
12 117 47 159 93 22 24 22 25 4 19 -119 -44 -227 -45 -319 -3 -31 14 -56 22
-56 18z"/>
<path d="M3881 8789 c-39 -68 -69 -182 -81 -305 -11 -114 -13 -230 -4 -221 4
3 21 64 40 134 39 151 74 241 118 303 l32 45 -28 45 c-16 25 -33 46 -38 48 -5
2 -22 -20 -39 -49z"/>
<path d="M3616 8550 c-3 -25 -7 -62 -8 -84 l-3 -38 -48 42 c-26 23 -50 41 -52
38 -7 -6 42 -212 76 -323 45 -144 87 -222 166 -303 53 -55 78 -73 113 -82 74
-20 190 -7 312 33 106 36 405 174 396 183 -3 2 -41 -10 -84 -27 -203 -81 -362
-127 -474 -135 -108 -8 -143 6 -201 83 -74 97 -111 212 -158 493 -25 147 -29
160 -35 120z"/>
<path d="M4434 8424 c10 -109 22 -149 53 -174 30 -23 56 -21 107 8 42 25 44
42 6 42 -48 0 -89 35 -121 104 -16 34 -29 66 -29 73 0 6 -5 15 -12 19 -8 5 -9
-13 -4 -72z"/>
<path d="M3220 8281 c-35 -207 91 -439 261 -482 46 -12 58 -26 59 -66 0 -23
-61 -14 -122 19 -70 37 -143 113 -184 192 -61 117 -47 33 17 -101 60 -126 141
-187 276 -208 31 -5 42 -12 47 -28 8 -32 -5 -39 -82 -45 -84 -6 -142 17 -193
76 -40 46 -93 158 -110 235 -20 92 -33 82 -25 -19 24 -293 115 -405 331 -407
44 0 99 5 122 12 36 10 48 9 74 -5 23 -11 50 -15 94 -12 62 4 62 4 39 -14 -97
-77 -263 -86 -491 -28 -40 10 -73 15 -73 11 0 -11 164 -90 237 -113 101 -33
260 -33 323 1 67 35 97 63 180 163 68 83 87 99 207 172 171 105 172 106 97
106 -73 0 -174 -27 -316 -86 -59 -24 -127 -47 -151 -50 -136 -19 -218 119
-302 506 l-25 115 3 -168 2 -167 -24 0 c-14 0 -42 12 -62 26 -79 54 -145 189
-171 345 -6 41 -15 78 -19 82 -4 5 -12 -23 -19 -62z"/>
<path d="M4295 7558 c-54 -19 -84 -48 -156 -149 -39 -55 -89 -113 -111 -129
-96 -70 -249 -98 -444 -81 -141 13 -156 13 -129 1 18 -8 17 -9 -8 -9 -91 -3
-201 -119 -317 -334 -48 -88 -48 -88 -140 -44 -134 64 -310 331 -310 471 0 62
7 65 266 112 328 60 339 67 54 34 -96 -12 -215 -25 -265 -31 -130 -15 -155
-33 -155 -108 0 -79 61 -235 138 -355 65 -101 195 -266 253 -322 66 -62 157
-127 196 -139 27 -7 33 5 145 305 93 251 127 327 167 369 l29 31 57 -20 c146
-50 315 -64 416 -34 111 33 184 101 279 259 67 113 91 143 124 165 l31 20 -45
-1 c-25 0 -58 -5 -75 -11z"/>
<path d="M3037 7323 c-120 -31 -216 -57 -214 -60 3 -2 80 3 173 11 92 9 169
14 170 13 2 -2 -55 -34 -127 -71 -72 -37 -128 -70 -126 -72 2 -2 64 16 137 41
73 25 135 43 137 41 2 -2 -37 -38 -87 -81 -49 -43 -90 -81 -90 -86 0 -5 44 18
97 50 54 33 99 58 101 56 2 -1 -26 -55 -62 -120 -36 -64 -61 -115 -56 -113 5
2 77 84 160 182 l150 179 -51 17 c-50 17 -69 32 -69 58 0 17 2 17 -243 -45z"/>
<path d="M4155 6808 c-2 -7 -11 -49 -20 -93 -35 -164 -120 -352 -220 -484 -31
-40 -54 -76 -51 -78 3 -3 27 11 53 30 161 119 240 281 250 515 3 67 3 122 -1
122 -4 0 -8 -6 -11 -12z"/>
<path d="M2465 6728 c28 -383 80 -614 190 -847 134 -283 362 -518 645 -669 79
-42 309 -137 316 -130 2 2 -44 37 -101 76 -481 331 -769 780 -904 1407 -15 68
-26 92 -77 162 -32 45 -63 82 -67 83 -5 0 -6 -37 -2 -82z"/>
<path d="M8548 10443 c12 -2 30 -2 40 0 9 3 -1 5 -23 4 -22 0 -30 -2 -17 -4z"/>
<path d="M8638 10443 c7 -3 16 -2 19 1 4 3 -2 6 -13 5 -11 0 -14 -3 -6 -6z"/>
<path d="M3045 10190 c-3 -5 -1 -10 4 -10 6 0 11 5 11 10 0 6 -2 10 -4 10 -3
0 -8 -4 -11 -10z"/>
<path d="M323 10233 c9 -2 23 -2 30 0 6 3 -1 5 -18 5 -16 0 -22 -2 -12 -5z"/>
<path d="M7518 10073 c7 -3 16 -2 19 1 4 3 -2 6 -13 5 -11 0 -14 -3 -6 -6z"/>
<path d="M7818 9493 c7 -3 16 -2 19 1 4 3 -2 6 -13 5 -11 0 -14 -3 -6 -6z"/>
<path d="M981 9456 c2 -3 49 -7 104 -10 62 -3 89 -2 70 3 -31 9 -182 14 -174
7z"/>
<path d="M1268 9433 c7 -3 16 -2 19 1 4 3 -2 6 -13 5 -11 0 -14 -3 -6 -6z"/>
<path d="M1445 9430 c3 -5 11 -10 16 -10 6 0 7 5 4 10 -3 6 -11 10 -16 10 -6
0 -7 -4 -4 -10z"/>
<path d="M1653 9413 c9 -2 23 -2 30 0 6 3 -1 5 -18 5 -16 0 -22 -2 -12 -5z"/>
<path d="M4943 10793 c48 -2 126 -2 175 0 48 1 8 3 -88 3 -96 0 -136 -2 -87
-3z"/>
<path d="M5623 10793 c64 -2 170 -2 235 0 64 1 11 3 -118 3 -129 0 -182 -2
-117 -3z"/>
<path d="M5983 10793 c11 -10 57 -13 57 -2 0 5 -14 9 -32 9 -17 0 -28 -3 -25
-7z"/>
<path d="M6100 10788 c0 -4 4 -8 9 -8 6 0 12 4 15 8 3 5 -1 9 -9 9 -8 0 -15
-4 -15 -9z"/>
<path d="M6318 10793 c7 -3 16 -2 19 1 4 3 -2 6 -13 5 -11 0 -14 -3 -6 -6z"/>
<path d="M6380 10790 c0 -12 56 -14 64 -2 2 4 -11 9 -30 10 -19 2 -34 -2 -34
-8z"/>
<path d="M6545 10790 c-16 -7 -17 -9 -3 -9 9 -1 20 4 23 9 7 11 7 11 -20 0z"/>
<path d="M6938 10793 c6 -2 18 -2 25 0 6 3 1 5 -13 5 -14 0 -19 -2 -12 -5z"/>
<path d="M7233 10793 c15 -2 37 -2 50 0 12 2 0 4 -28 4 -27 0 -38 -2 -22 -4z"/>
<path d="M5417 10769 c7 -7 15 -10 18 -7 3 3 -2 9 -12 12 -14 6 -15 5 -6 -5z"/>
<path d="M5450 10769 c0 -5 9 -9 20 -9 11 0 20 2 20 4 0 2 -9 6 -20 9 -11 3
-20 1 -20 -4z"/>
<path d="M7375 10691 c-3 -5 -1 -12 5 -16 5 -3 10 1 10 9 0 18 -6 21 -15 7z"/>
<path d="M7456 10690 c-19 -6 -19 -7 -1 -13 20 -8 29 -4 24 11 -2 5 -13 6 -23
2z"/>
<path d="M7500 10686 c0 -2 7 -6 15 -10 8 -3 15 -1 15 4 0 6 -7 10 -15 10 -8
0 -15 -2 -15 -4z"/>
<path d="M7568 10673 c7 -3 16 -2 19 1 4 3 -2 6 -13 5 -11 0 -14 -3 -6 -6z"/>
</g>
</svg>
